<svg width="742" height="482" viewBox="0 0 742 482" fill="none" xmlns="http://www.w3.org/2000/svg">
<g filter="url(#filter0_d_2267_4)">
<rect x="60" y="52" width="560" height="300" rx="30" fill="white"/>
<rect x="59" y="51" width="562" height="302" rx="31" stroke="#E152B9" stroke-width="2"/>
</g>
<mask id="mask0_2267_4" style="mask-type:alpha" maskUnits="userSpaceOnUse" x="347" y="52" width="273" height="300">
<rect x="347" y="52" width="273" height="300" rx="30" fill="white"/>
</mask>
<g mask="url(#mask0_2267_4)">
<path d="M720.82 306.349L714.413 304.768C716.03 301.54 714.402 297.034 709.778 296.915C695.381 296.546 680.998 297.877 666.889 300.753C665.874 300.96 665.075 301.393 664.469 301.966C635.339 303.463 606.182 304.394 577.015 304.726C540.814 305.138 504.608 304.651 468.431 303.267C450.602 302.584 432.782 301.666 414.975 300.55C415.245 299.206 415.062 297.759 414.398 296.625C412.821 293.929 409.632 293.409 406.984 294.681L385.15 305.168C381.042 307.141 381.988 314.187 386.445 315.073C395.036 316.779 403.722 317.305 412.441 317.296C413.222 318.853 414.759 320.01 417.066 320L536.278 319.509L655.489 319.018L688.543 318.881C694.143 318.859 699.742 318.837 705.341 318.812C710.549 318.789 715.916 318.768 720.821 316.801C723.074 315.897 724.799 314.154 724.799 311.575C724.799 309.241 723.123 306.917 720.82 306.349Z" fill="#BED0DB"/>
<path d="M669.553 96H431.905C429.196 96 427 98.196 427 100.905V196.712C427 199.421 429.196 201.617 431.905 201.617H669.553C672.262 201.617 674.458 199.421 674.458 196.712V100.906C674.458 98.1965 672.262 96 669.553 96Z" fill="#8D0280"/>
<path d="M712.229 219.061H389.23L427.456 182.478C428.237 181.128 429.941 180.193 431.91 180.193H669.549C671.518 180.193 673.222 181.128 674.003 182.478L712.229 219.061Z" fill="#DFDFDF"/>
<path d="M714.297 223.601V269.038H387.16V223.68C387.16 223.107 387.239 222.548 387.382 222.025C388.113 219.404 390.512 217.478 393.369 217.478H708.089C708.633 217.478 709.156 217.549 709.657 217.679C709.693 217.686 709.729 217.7 709.764 217.714C710.62 217.947 711.415 218.365 712.092 218.939C712.73 219.478 713.253 220.14 713.629 220.886C714.006 221.631 714.228 222.445 714.283 223.278C714.29 223.386 714.297 223.493 714.297 223.601Z" fill="#ECECEC"/>
<path d="M400.768 298.396H700.693V310.33H400.768V298.396Z" fill="#463E4C"/>
<path d="M380 248.984H721.459V300.543H380V248.984Z" fill="#8C007E"/>
<path d="M542.324 182.469C542.291 182.286 542.308 182.097 542.372 181.921C544.559 175.929 545.756 169.45 545.756 162.684C545.756 155.753 544.498 149.123 542.209 143.009L542.213 143.012L543.55 135.474C543.696 134.651 542.891 133.981 542.108 134.274L534.523 137.108L534.526 137.11C521.019 135.975 506.387 135.353 491.094 135.353C476.106 135.353 461.751 135.95 448.469 137.042C448.313 137.055 448.155 137.033 448.007 136.978L440.772 134.274C439.988 133.981 439.184 134.651 439.329 135.474L440.397 141.493C440.431 141.686 440.411 141.884 440.338 142.066C437.819 148.438 436.432 155.395 436.432 162.683C436.432 169.912 437.795 176.818 440.276 183.147C440.347 183.329 440.367 183.526 440.333 183.718L439.329 189.379C439.182 190.203 439.987 190.873 440.771 190.58L446.891 188.292C447.04 188.237 447.198 188.215 447.356 188.228C460.95 189.38 475.683 190.014 491.093 190.014C506.716 190.014 521.639 189.36 535.387 188.178C535.546 188.165 535.704 188.186 535.853 188.242L542.107 190.579C542.89 190.872 543.695 190.202 543.549 189.379L542.324 182.469ZM661.596 182.469C661.563 182.286 661.58 182.097 661.644 181.921C663.831 175.929 665.028 169.45 665.028 162.684C665.028 155.753 663.77 149.123 661.481 143.009L661.485 143.012L662.821 135.474C662.967 134.651 662.163 133.981 661.379 134.274L653.795 137.108L653.798 137.11C640.29 135.975 625.659 135.353 610.366 135.353C595.378 135.353 581.023 135.95 567.741 137.042C567.584 137.055 567.426 137.033 567.279 136.978L560.044 134.274C559.26 133.981 558.455 134.651 558.601 135.474L559.669 141.493C559.703 141.686 559.683 141.884 559.61 142.066C557.092 148.438 555.704 155.395 555.704 162.683C555.704 169.912 557.068 176.818 559.548 183.147C559.619 183.329 559.639 183.526 559.605 183.718L558.601 189.379C558.455 190.203 559.26 190.873 560.043 190.58L566.164 188.292C566.312 188.237 566.47 188.215 566.628 188.228C580.222 189.38 594.955 190.014 610.365 190.014C625.988 190.014 640.911 189.36 654.659 188.178C654.818 188.165 654.976 188.186 655.125 188.242L661.379 190.579C662.162 190.872 662.967 190.202 662.821 189.379L661.596 182.469Z" fill="#E152B9"/>
<path d="M679.438 194.091C660.633 197.222 641.747 200.375 623.599 206.219C609.457 210.766 595.703 217.035 583.71 225.725C583.262 226.053 582.801 226.363 582.33 226.655C576.128 230.63 568.608 232.056 561.312 230.77C559.256 230.408 557.191 230.095 555.119 229.832C513.788 224.575 470.661 238.424 428.337 235.357C424.584 235.084 420.712 234.647 417.462 232.748C414.219 230.85 411.756 227.108 412.481 223.422C412.91 221.217 414.361 219.378 415.766 217.63C421.623 210.335 427.487 203.034 433.35 195.739C436.084 192.329 439.332 188.645 443.688 188.331C446.919 188.096 449.919 189.803 452.845 191.186C468.945 198.773 487.742 197.342 505.289 194.394C522.837 191.439 540.572 187.111 558.221 189.425C570.595 191.052 582.391 195.903 594.803 197.258C622.96 200.349 652.061 186.832 679.438 194.091Z" fill="white"/>
<path d="M582.33 226.655C576.128 230.63 568.608 232.056 561.313 230.77C559.256 230.408 557.191 230.095 555.119 229.832C553.811 228.68 552.53 227.498 551.275 226.288C544.577 219.831 538.327 212.764 530.517 207.707C521.443 201.833 511.49 198.495 500.707 199.163C513.459 195.216 527.847 196.889 539.357 203.657C545.103 207.04 550.072 211.559 555.266 215.743C560.46 219.926 566.044 223.852 572.445 225.731C575.619 226.667 579.04 227.025 582.33 226.655Z" fill="#DFDFDF"/>
</g>
<g opacity="0.4" filter="url(#filter1_f_2267_4)">
<rect x="284" y="99" width="80" height="22" fill="#E152B9"/>
</g>
<path d="M94.0361 121V99.3936H98.2988V117.074H108.289V121H94.0361ZM122.036 120.487C120.806 121.132 119.409 121.454 117.847 121.454C116.284 121.454 114.883 121.132 113.643 120.487C112.412 119.833 111.431 118.866 110.698 117.587C109.966 116.308 109.6 114.813 109.6 113.104C109.6 111.806 109.81 110.629 110.23 109.574C110.659 108.51 111.245 107.631 111.987 106.938C112.739 106.234 113.613 105.692 114.609 105.312C115.615 104.931 116.694 104.74 117.847 104.74C119.009 104.74 120.088 104.931 121.084 105.312C122.09 105.692 122.959 106.234 123.691 106.938C124.434 107.631 125.015 108.51 125.435 109.574C125.855 110.629 126.065 111.806 126.065 113.104C126.065 114.823 125.698 116.322 124.966 117.602C124.243 118.871 123.267 119.833 122.036 120.487ZM113.833 113.104C113.833 114.599 114.219 115.751 114.99 116.562C115.762 117.362 116.714 117.763 117.847 117.763C118.98 117.763 119.927 117.362 120.689 116.562C121.45 115.751 121.831 114.599 121.831 113.104C121.831 111.591 121.45 110.434 120.689 109.633C119.927 108.832 118.98 108.432 117.847 108.432C116.704 108.432 115.747 108.832 114.976 109.633C114.214 110.434 113.833 111.591 113.833 113.104ZM140.398 120.487C139.167 121.132 137.771 121.454 136.208 121.454C134.646 121.454 133.244 121.132 132.004 120.487C130.774 119.833 129.792 118.866 129.06 117.587C128.327 116.308 127.961 114.813 127.961 113.104C127.961 111.806 128.171 110.629 128.591 109.574C129.021 108.51 129.607 107.631 130.349 106.938C131.101 106.234 131.975 105.692 132.971 105.312C133.977 104.931 135.056 104.74 136.208 104.74C137.37 104.74 138.449 104.931 139.445 105.312C140.451 105.692 141.32 106.234 142.053 106.938C142.795 107.631 143.376 108.51 143.796 109.574C144.216 110.629 144.426 111.806 144.426 113.104C144.426 114.823 144.06 116.322 143.327 117.602C142.605 118.871 141.628 119.833 140.398 120.487ZM132.194 113.104C132.194 114.599 132.58 115.751 133.352 116.562C134.123 117.362 135.075 117.763 136.208 117.763C137.341 117.763 138.288 117.362 139.05 116.562C139.812 115.751 140.193 114.599 140.193 113.104C140.193 111.591 139.812 110.434 139.05 109.633C138.288 108.832 137.341 108.432 136.208 108.432C135.066 108.432 134.109 108.832 133.337 109.633C132.575 110.434 132.194 111.591 132.194 113.104ZM147.128 121V98.6465H151.332V111.215L156.781 105.194H162.099L156.371 111.303L162.304 121H157.572L153.486 114.364L151.332 116.679V121H147.128ZM164.259 121V105.194H168.493V121H164.259ZM163.776 101.195C163.776 100.492 164.025 99.8916 164.523 99.3936C165.031 98.8955 165.641 98.6465 166.354 98.6465C167.076 98.6465 167.692 98.8955 168.2 99.3936C168.707 99.8916 168.961 100.492 168.961 101.195C168.961 101.889 168.702 102.489 168.185 102.997C167.677 103.495 167.067 103.744 166.354 103.744C165.641 103.744 165.031 103.495 164.523 102.997C164.025 102.489 163.776 101.889 163.776 101.195ZM171.81 121V105.194H175.882V107.113C176.292 106.469 176.908 105.912 177.728 105.443C178.558 104.975 179.554 104.74 180.716 104.74C182.494 104.74 183.895 105.292 184.92 106.396C185.955 107.499 186.473 108.925 186.473 110.673V121H182.254V111.552C182.254 110.673 182 109.94 181.493 109.354C180.985 108.759 180.287 108.461 179.398 108.461C178.46 108.461 177.664 108.798 177.01 109.472C176.366 110.136 176.043 110.98 176.043 112.006V121H171.81ZM196.221 127.152C193.799 127.152 191.958 126.747 190.699 125.937C189.439 125.136 188.809 124.11 188.809 122.86C188.809 121.62 189.41 120.482 190.611 119.447C189.488 118.734 188.926 117.724 188.926 116.415C188.926 115.019 189.707 113.866 191.27 112.958C190.528 112.128 190.157 111.107 190.157 109.896C190.157 108.305 190.777 107.05 192.017 106.132C193.267 105.204 194.869 104.74 196.822 104.74C197.974 104.74 198.98 104.901 199.839 105.224L202.066 101.708L205.245 104.169L202.52 107.025C203.135 107.816 203.443 108.773 203.443 109.896C203.443 111.479 202.832 112.724 201.612 113.632C200.391 114.54 198.804 114.994 196.851 114.994C195.494 114.994 194.322 114.784 193.335 114.364C193.013 114.687 192.852 115.038 192.852 115.419C192.852 115.78 193.003 116.068 193.306 116.283C193.609 116.488 194.009 116.601 194.507 116.62L199.063 116.796C200.762 116.864 202.081 117.328 203.018 118.188C203.965 119.037 204.439 120.155 204.439 121.542C204.439 122.323 204.283 123.041 203.97 123.695C203.658 124.35 203.184 124.94 202.549 125.468C201.915 125.995 201.055 126.405 199.971 126.698C198.897 127.001 197.647 127.152 196.221 127.152ZM192.559 122.055C192.559 122.689 192.881 123.183 193.526 123.534C194.17 123.886 195.147 124.062 196.456 124.062C198.975 124.062 200.235 123.383 200.235 122.025C200.235 121.527 200.064 121.142 199.722 120.868C199.39 120.585 198.921 120.429 198.316 120.399L193.511 120.224C192.876 120.761 192.559 121.371 192.559 122.055ZM194.332 109.867C194.332 110.492 194.556 111.005 195.005 111.405C195.455 111.806 196.06 112.006 196.822 112.006C197.574 112.006 198.174 111.806 198.624 111.405C199.082 111.005 199.312 110.492 199.312 109.867C199.312 109.223 199.087 108.71 198.638 108.329C198.189 107.938 197.583 107.743 196.822 107.743C196.05 107.743 195.44 107.938 194.991 108.329C194.551 108.71 194.332 109.223 194.332 109.867ZM216.274 104.374C216.274 103.505 216.381 102.724 216.596 102.03C216.811 101.327 217.104 100.741 217.475 100.272C217.856 99.8037 218.305 99.4131 218.823 99.1006C219.35 98.7783 219.912 98.5488 220.507 98.4121C221.103 98.2754 221.743 98.207 222.426 98.207C223.247 98.207 223.984 98.3047 224.638 98.5V101.957C224.218 101.869 223.798 101.825 223.379 101.825C221.464 101.825 220.507 102.719 220.507 104.506V105.194H224.257V108.578H220.507V121H216.274V108.578H213.271V105.194H216.274V104.374ZM237.638 120.487C236.408 121.132 235.011 121.454 233.449 121.454C231.886 121.454 230.485 121.132 229.245 120.487C228.014 119.833 227.033 118.866 226.301 117.587C225.568 116.308 225.202 114.813 225.202 113.104C225.202 111.806 225.412 110.629 225.832 109.574C226.261 108.51 226.847 107.631 227.59 106.938C228.342 106.234 229.216 105.692 230.212 105.312C231.217 104.931 232.297 104.74 233.449 104.74C234.611 104.74 235.69 104.931 236.686 105.312C237.692 105.692 238.561 106.234 239.294 106.938C240.036 107.631 240.617 108.51 241.037 109.574C241.457 110.629 241.667 111.806 241.667 113.104C241.667 114.823 241.301 116.322 240.568 117.602C239.845 118.871 238.869 119.833 237.638 120.487ZM229.435 113.104C229.435 114.599 229.821 115.751 230.592 116.562C231.364 117.362 232.316 117.763 233.449 117.763C234.582 117.763 235.529 117.362 236.291 116.562C237.052 115.751 237.433 114.599 237.433 113.104C237.433 111.591 237.052 110.434 236.291 109.633C235.529 108.832 234.582 108.432 233.449 108.432C232.306 108.432 231.349 108.832 230.578 109.633C229.816 110.434 229.435 111.591 229.435 113.104ZM244.281 121V105.194H248.324V108.124C248.666 107.177 249.213 106.425 249.965 105.868C250.726 105.312 251.591 105.033 252.557 105.033C253.046 105.033 253.627 105.106 254.301 105.253V109.413C253.822 109.315 253.28 109.267 252.675 109.267C251.405 109.267 250.394 109.647 249.642 110.409C248.89 111.161 248.514 112.362 248.514 114.013V121H244.281ZM269.212 121.454C267.708 121.454 266.473 121.029 265.506 120.18C264.539 119.33 264.056 118.163 264.056 116.679C264.056 115.761 264.256 114.95 264.656 114.247C265.057 113.534 265.613 112.958 266.326 112.519C267.039 112.069 267.815 111.718 268.655 111.464C269.505 111.21 270.442 111.029 271.468 110.922L273.709 110.644V110.409C273.709 109.647 273.455 109.062 272.947 108.651C272.449 108.241 271.814 108.036 271.043 108.036C270.311 108.036 269.7 108.241 269.212 108.651C268.724 109.062 268.436 109.608 268.348 110.292H264.261C264.427 108.505 265.13 107.133 266.37 106.176C267.61 105.219 269.217 104.74 271.189 104.74C271.853 104.74 272.483 104.799 273.079 104.916C273.685 105.023 274.275 105.224 274.852 105.517C275.437 105.81 275.94 106.181 276.36 106.63C276.78 107.069 277.117 107.65 277.371 108.373C277.635 109.096 277.767 109.916 277.767 110.834V116.415C277.767 117.851 277.854 119.379 278.03 121H273.958V118.715C273.421 119.564 272.771 120.233 272.01 120.722C271.258 121.21 270.325 121.454 269.212 121.454ZM268.186 116.283C268.186 116.82 268.372 117.265 268.743 117.616C269.124 117.968 269.622 118.144 270.237 118.144C271.155 118.144 271.961 117.777 272.654 117.045C273.357 116.303 273.709 115.341 273.709 114.159V113.412L271.131 113.837C270.154 113.983 269.417 114.267 268.919 114.687C268.431 115.106 268.186 115.639 268.186 116.283ZM289.162 121V105.194H293.205V108.124C293.547 107.177 294.094 106.425 294.846 105.868C295.608 105.312 296.472 105.033 297.439 105.033C297.927 105.033 298.508 105.106 299.182 105.253V109.413C298.703 109.315 298.161 109.267 297.556 109.267C296.286 109.267 295.276 109.647 294.524 110.409C293.772 111.161 293.396 112.362 293.396 114.013V121H289.162ZM312.944 120.487C311.713 121.132 310.317 121.454 308.754 121.454C307.192 121.454 305.79 121.132 304.55 120.487C303.32 119.833 302.338 118.866 301.606 117.587C300.873 116.308 300.507 114.813 300.507 113.104C300.507 111.806 300.717 110.629 301.137 109.574C301.567 108.51 302.153 107.631 302.895 106.938C303.647 106.234 304.521 105.692 305.517 105.312C306.523 104.931 307.602 104.74 308.754 104.74C309.916 104.74 310.995 104.931 311.991 105.312C312.997 105.692 313.866 106.234 314.599 106.938C315.341 107.631 315.922 108.51 316.342 109.574C316.762 110.629 316.972 111.806 316.972 113.104C316.972 114.823 316.606 116.322 315.873 117.602C315.151 118.871 314.174 119.833 312.944 120.487ZM304.74 113.104C304.74 114.599 305.126 115.751 305.898 116.562C306.669 117.362 307.621 117.763 308.754 117.763C309.887 117.763 310.834 117.362 311.596 116.562C312.358 115.751 312.738 114.599 312.738 113.104C312.738 111.591 312.358 110.434 311.596 109.633C310.834 108.832 309.887 108.432 308.754 108.432C307.612 108.432 306.654 108.832 305.883 109.633C305.121 110.434 304.74 111.591 304.74 113.104ZM331.305 120.487C330.074 121.132 328.678 121.454 327.116 121.454C325.553 121.454 324.152 121.132 322.911 120.487C321.681 119.833 320.699 118.866 319.967 117.587C319.235 116.308 318.868 114.813 318.868 113.104C318.868 111.806 319.078 110.629 319.498 109.574C319.928 108.51 320.514 107.631 321.256 106.938C322.008 106.234 322.882 105.692 323.878 105.312C324.884 104.931 325.963 104.74 327.116 104.74C328.278 104.74 329.357 104.931 330.353 105.312C331.359 105.692 332.228 106.234 332.96 106.938C333.702 107.631 334.283 108.51 334.703 109.574C335.123 110.629 335.333 111.806 335.333 113.104C335.333 114.823 334.967 116.322 334.235 117.602C333.512 118.871 332.535 119.833 331.305 120.487ZM323.102 113.104C323.102 114.599 323.488 115.751 324.259 116.562C325.031 117.362 325.983 117.763 327.116 117.763C328.248 117.763 329.196 117.362 329.957 116.562C330.719 115.751 331.1 114.599 331.1 113.104C331.1 111.591 330.719 110.434 329.957 109.633C329.196 108.832 328.248 108.432 327.116 108.432C325.973 108.432 325.016 108.832 324.244 109.633C323.483 110.434 323.102 111.591 323.102 113.104ZM337.948 121V105.194H342.02V107.084C342.391 106.459 342.957 105.912 343.719 105.443C344.491 104.975 345.409 104.74 346.473 104.74C347.459 104.74 348.328 104.96 349.08 105.399C349.842 105.839 350.443 106.449 350.882 107.23C351.351 106.557 352.025 105.976 352.904 105.487C353.792 104.989 354.769 104.74 355.833 104.74C357.542 104.74 358.875 105.287 359.832 106.381C360.799 107.475 361.283 108.905 361.283 110.673V121H357.064V111.273C357.064 110.434 356.844 109.755 356.405 109.237C355.975 108.72 355.384 108.461 354.632 108.461C353.802 108.461 353.109 108.754 352.552 109.34C351.995 109.926 351.717 110.712 351.717 111.698V121H347.484V111.273C347.484 110.443 347.269 109.77 346.839 109.252C346.41 108.725 345.814 108.461 345.052 108.461C344.232 108.461 343.548 108.759 343.001 109.354C342.454 109.94 342.181 110.722 342.181 111.698V121H337.948ZM105.608 160.487C104.378 161.132 102.981 161.454 101.419 161.454C99.8564 161.454 98.4551 161.132 97.2148 160.487C95.9844 159.833 95.0029 158.866 94.2705 157.587C93.5381 156.308 93.1719 154.813 93.1719 153.104C93.1719 151.806 93.3818 150.629 93.8018 149.574C94.2314 148.51 94.8174 147.631 95.5596 146.938C96.3115 146.234 97.1855 145.692 98.1816 145.312C99.1875 144.931 100.267 144.74 101.419 144.74C102.581 144.74 103.66 144.931 104.656 145.312C105.662 145.692 106.531 146.234 107.264 146.938C108.006 147.631 108.587 148.51 109.007 149.574C109.427 150.629 109.637 151.806 109.637 153.104C109.637 154.823 109.271 156.322 108.538 157.602C107.815 158.871 106.839 159.833 105.608 160.487ZM97.4053 153.104C97.4053 154.599 97.791 155.751 98.5625 156.562C99.334 157.362 100.286 157.763 101.419 157.763C102.552 157.763 103.499 157.362 104.261 156.562C105.022 155.751 105.403 154.599 105.403 153.104C105.403 151.591 105.022 150.434 104.261 149.633C103.499 148.832 102.552 148.432 101.419 148.432C100.276 148.432 99.3193 148.832 98.5479 149.633C97.7861 150.434 97.4053 151.591 97.4053 153.104ZM112.251 161V145.194H116.294V148.124C116.636 147.177 117.183 146.425 117.935 145.868C118.696 145.312 119.561 145.033 120.527 145.033C121.016 145.033 121.597 145.106 122.271 145.253V149.413C121.792 149.315 121.25 149.267 120.645 149.267C119.375 149.267 118.364 149.647 117.612 150.409C116.86 151.161 116.484 152.362 116.484 154.013V161H112.251ZM137.182 161.454C135.678 161.454 134.443 161.029 133.476 160.18C132.509 159.33 132.026 158.163 132.026 156.679C132.026 155.761 132.226 154.95 132.626 154.247C133.027 153.534 133.583 152.958 134.296 152.519C135.009 152.069 135.785 151.718 136.625 151.464C137.475 151.21 138.412 151.029 139.438 150.922L141.679 150.644V150.409C141.679 149.647 141.425 149.062 140.917 148.651C140.419 148.241 139.784 148.036 139.013 148.036C138.281 148.036 137.67 148.241 137.182 148.651C136.694 149.062 136.406 149.608 136.318 150.292H132.231C132.397 148.505 133.1 147.133 134.34 146.176C135.58 145.219 137.187 144.74 139.159 144.74C139.823 144.74 140.453 144.799 141.049 144.916C141.655 145.023 142.245 145.224 142.822 145.517C143.407 145.81 143.91 146.181 144.33 146.63C144.75 147.069 145.087 147.65 145.341 148.373C145.605 149.096 145.737 149.916 145.737 150.834V156.415C145.737 157.851 145.824 159.379 146 161H141.928V158.715C141.391 159.564 140.741 160.233 139.98 160.722C139.228 161.21 138.295 161.454 137.182 161.454ZM136.156 156.283C136.156 156.82 136.342 157.265 136.713 157.616C137.094 157.968 137.592 158.144 138.207 158.144C139.125 158.144 139.931 157.777 140.624 157.045C141.327 156.303 141.679 155.341 141.679 154.159V153.412L139.101 153.837C138.124 153.983 137.387 154.267 136.889 154.687C136.401 155.106 136.156 155.639 136.156 156.283ZM149.054 167.152V145.194H153.126V146.967C154.21 145.482 155.822 144.74 157.96 144.74C158.868 144.74 159.738 144.931 160.568 145.312C161.398 145.683 162.135 146.215 162.78 146.908C163.434 147.592 163.951 148.471 164.332 149.545C164.723 150.619 164.918 151.806 164.918 153.104C164.918 154.403 164.723 155.59 164.332 156.664C163.951 157.729 163.434 158.607 162.78 159.301C162.135 159.984 161.398 160.517 160.568 160.897C159.738 161.269 158.868 161.454 157.96 161.454C155.919 161.454 154.362 160.785 153.287 159.447V167.152H149.054ZM153.287 153.104C153.287 154.618 153.639 155.771 154.342 156.562C155.045 157.343 155.924 157.733 156.979 157.733C158.024 157.733 158.893 157.343 159.586 156.562C160.28 155.771 160.626 154.618 160.626 153.104C160.626 151.581 160.28 150.429 159.586 149.647C158.893 148.856 158.024 148.461 156.979 148.461C155.934 148.461 155.055 148.866 154.342 149.677C153.639 150.487 153.287 151.63 153.287 153.104ZM172.118 161.454C170.614 161.454 169.378 161.029 168.412 160.18C167.445 159.33 166.961 158.163 166.961 156.679C166.961 155.761 167.162 154.95 167.562 154.247C167.962 153.534 168.519 152.958 169.232 152.519C169.945 152.069 170.721 151.718 171.561 151.464C172.411 151.21 173.348 151.029 174.373 150.922L176.615 150.644V150.409C176.615 149.647 176.361 149.062 175.853 148.651C175.355 148.241 174.72 148.036 173.949 148.036C173.216 148.036 172.606 148.241 172.118 148.651C171.629 149.062 171.341 149.608 171.253 150.292H167.166C167.332 148.505 168.036 147.133 169.276 146.176C170.516 145.219 172.122 144.74 174.095 144.74C174.759 144.74 175.389 144.799 175.985 144.916C176.59 145.023 177.181 145.224 177.757 145.517C178.343 145.81 178.846 146.181 179.266 146.63C179.686 147.069 180.023 147.65 180.277 148.373C180.54 149.096 180.672 149.916 180.672 150.834V156.415C180.672 157.851 180.76 159.379 180.936 161H176.864V158.715C176.327 159.564 175.677 160.233 174.915 160.722C174.163 161.21 173.231 161.454 172.118 161.454ZM171.092 156.283C171.092 156.82 171.278 157.265 171.649 157.616C172.03 157.968 172.528 158.144 173.143 158.144C174.061 158.144 174.867 157.777 175.56 157.045C176.263 156.303 176.615 155.341 176.615 154.159V153.412L174.037 153.837C173.06 153.983 172.323 154.267 171.825 154.687C171.336 155.106 171.092 155.639 171.092 156.283ZM183.99 161V145.194H188.033V148.124C188.374 147.177 188.921 146.425 189.673 145.868C190.435 145.312 191.299 145.033 192.266 145.033C192.754 145.033 193.335 145.106 194.009 145.253V149.413C193.531 149.315 192.989 149.267 192.383 149.267C191.114 149.267 190.103 149.647 189.351 150.409C188.599 151.161 188.223 152.362 188.223 154.013V161H183.99ZM204.431 161.293C203.552 161.293 202.771 161.195 202.087 161C201.404 160.805 200.784 160.487 200.227 160.048C199.68 159.608 199.26 158.993 198.967 158.202C198.674 157.411 198.528 156.464 198.528 155.36V148.578H195.525V145.194H198.528V142.104L202.761 139.936V145.194H206.511V148.578H202.761V155.243C202.761 156.864 203.611 157.675 205.31 157.675C205.818 157.675 206.345 157.621 206.892 157.514V161C206.15 161.195 205.33 161.293 204.431 161.293ZM208.847 161V145.194H212.92V147.084C213.291 146.459 213.857 145.912 214.619 145.443C215.39 144.975 216.308 144.74 217.373 144.74C218.359 144.74 219.228 144.96 219.98 145.399C220.742 145.839 221.342 146.449 221.782 147.23C222.251 146.557 222.924 145.976 223.803 145.487C224.692 144.989 225.669 144.74 226.733 144.74C228.442 144.74 229.775 145.287 230.732 146.381C231.699 147.475 232.182 148.905 232.182 150.673V161H227.964V151.273C227.964 150.434 227.744 149.755 227.304 149.237C226.875 148.72 226.284 148.461 225.532 148.461C224.702 148.461 224.008 148.754 223.452 149.34C222.895 149.926 222.617 150.712 222.617 151.698V161H218.383V151.273C218.383 150.443 218.169 149.77 217.739 149.252C217.309 148.725 216.714 148.461 215.952 148.461C215.131 148.461 214.448 148.759 213.901 149.354C213.354 149.94 213.081 150.722 213.081 151.698V161H208.847ZM242.795 161.454C241.681 161.454 240.641 161.264 239.675 160.883C238.708 160.492 237.863 159.95 237.14 159.257C236.418 158.554 235.846 157.67 235.426 156.605C235.016 155.541 234.811 154.364 234.811 153.075C234.811 151.806 235.026 150.644 235.456 149.589C235.885 148.524 236.462 147.646 237.184 146.952C237.917 146.249 238.761 145.707 239.718 145.326C240.685 144.936 241.701 144.74 242.765 144.74C243.976 144.74 245.09 144.97 246.105 145.429C247.121 145.878 247.97 146.508 248.654 147.318C249.338 148.129 249.831 149.13 250.134 150.321C250.446 151.503 250.519 152.792 250.353 154.188H238.942C239.118 155.429 239.548 156.376 240.231 157.03C240.925 157.675 241.779 157.997 242.795 157.997C243.576 157.997 244.255 157.821 244.831 157.47C245.417 157.108 245.807 156.605 246.003 155.961H250.295C249.933 157.68 249.084 159.027 247.746 160.004C246.418 160.971 244.767 161.454 242.795 161.454ZM239.074 151.347H246.003C245.964 150.341 245.646 149.564 245.051 149.018C244.465 148.471 243.693 148.197 242.736 148.197C241.867 148.197 241.1 148.466 240.436 149.003C239.772 149.53 239.318 150.312 239.074 151.347ZM253.012 161V145.194H257.084V147.113C257.494 146.469 258.109 145.912 258.929 145.443C259.76 144.975 260.756 144.74 261.918 144.74C263.695 144.74 265.096 145.292 266.122 146.396C267.157 147.499 267.675 148.925 267.675 150.673V161H263.456V151.552C263.456 150.673 263.202 149.94 262.694 149.354C262.186 148.759 261.488 148.461 260.599 148.461C259.662 148.461 258.866 148.798 258.212 149.472C257.567 150.136 257.245 150.98 257.245 152.006V161H253.012ZM277.935 161.293C277.057 161.293 276.275 161.195 275.592 161C274.908 160.805 274.288 160.487 273.731 160.048C273.184 159.608 272.765 158.993 272.472 158.202C272.179 157.411 272.032 156.464 272.032 155.36V148.578H269.029V145.194H272.032V142.104L276.266 139.936V145.194H280.016V148.578H276.266V155.243C276.266 156.864 277.115 157.675 278.814 157.675C279.322 157.675 279.849 157.621 280.396 157.514V161C279.654 161.195 278.834 161.293 277.935 161.293ZM290.54 154.862C289.837 155.058 289.09 155.155 288.299 155.155C287.508 155.155 286.761 155.062 286.058 154.877C285.354 154.691 284.715 154.418 284.139 154.057C283.562 153.686 283.103 153.197 282.762 152.592C282.43 151.977 282.264 151.278 282.264 150.497C282.264 149.208 282.703 148.153 283.582 147.333C284.461 146.503 285.682 145.907 287.244 145.546L288.987 145.136C290.227 144.853 290.848 144.359 290.848 143.656C290.848 143.168 290.613 142.802 290.144 142.558C289.686 142.313 289.129 142.191 288.475 142.191C287.596 142.191 286.853 142.401 286.248 142.821C285.643 143.231 285.325 143.793 285.296 144.506H281.297C281.326 143.715 281.492 142.997 281.795 142.353C282.098 141.708 282.478 141.181 282.937 140.771C283.406 140.351 283.948 140.004 284.563 139.73C285.179 139.447 285.799 139.247 286.424 139.13C287.049 139.013 287.684 138.954 288.328 138.954C289.002 138.954 289.651 139.018 290.276 139.145C290.911 139.271 291.512 139.472 292.078 139.745C292.644 140.009 293.138 140.336 293.558 140.727C293.987 141.107 294.324 141.576 294.568 142.133C294.822 142.68 294.949 143.28 294.949 143.935C294.949 145.136 294.559 146.088 293.777 146.791C292.996 147.484 291.907 148.021 290.511 148.402L288.299 148.974C287.01 149.335 286.365 149.872 286.365 150.585C286.365 150.995 286.536 151.308 286.878 151.522C287.22 151.737 287.669 151.845 288.226 151.845C289.563 151.845 290.315 151.186 290.481 149.867H294.627C294.588 150.795 294.378 151.61 293.997 152.313C293.626 153.017 293.133 153.568 292.518 153.969C291.912 154.369 291.253 154.667 290.54 154.862ZM285.501 158.686C285.501 158.012 285.769 157.431 286.307 156.942C286.844 156.444 287.493 156.195 288.255 156.195C289.017 156.195 289.661 156.444 290.188 156.942C290.726 157.431 290.994 158.012 290.994 158.686C290.994 159.379 290.726 159.97 290.188 160.458C289.661 160.937 289.017 161.176 288.255 161.176C287.493 161.176 286.844 160.937 286.307 160.458C285.769 159.97 285.501 159.379 285.501 158.686Z" fill="#373940"/>
<path d="M93.4219 196V184.477H100.609V185.805H94.8281V189.727H99.5547V191.055H94.8281V196H93.4219ZM102.09 196V187.711H103.48V196H102.09ZM101.832 185.328C101.832 185.062 101.926 184.836 102.113 184.648C102.301 184.461 102.527 184.367 102.793 184.367C103.058 184.367 103.285 184.461 103.472 184.648C103.66 184.836 103.754 185.062 103.754 185.328C103.754 185.589 103.66 185.812 103.472 186C103.285 186.182 103.058 186.273 102.793 186.273C102.527 186.273 102.301 186.182 102.113 186C101.926 185.812 101.832 185.589 101.832 185.328ZM105.882 196V184.078H107.273V196H105.882ZM109.675 196V184.078H111.066V196H109.675ZM121.472 196.242C120.706 196.242 120.011 196.076 119.386 195.742C118.766 195.404 118.266 194.898 117.886 194.227C117.511 193.555 117.323 192.766 117.323 191.859C117.323 191.177 117.433 190.557 117.651 190C117.87 189.438 118.169 188.974 118.55 188.609C118.93 188.245 119.37 187.964 119.87 187.766C120.37 187.568 120.904 187.469 121.472 187.469C122.044 187.469 122.581 187.568 123.081 187.766C123.581 187.964 124.018 188.245 124.393 188.609C124.768 188.974 125.065 189.438 125.284 190C125.503 190.557 125.612 191.177 125.612 191.859C125.612 192.542 125.503 193.161 125.284 193.719C125.065 194.276 124.768 194.737 124.393 195.102C124.018 195.466 123.581 195.747 123.081 195.945C122.581 196.143 122.044 196.242 121.472 196.242ZM118.948 190.5C118.797 190.901 118.722 191.354 118.722 191.859C118.722 192.365 118.797 192.82 118.948 193.227C119.099 193.628 119.302 193.953 119.558 194.203C119.818 194.448 120.11 194.635 120.433 194.766C120.761 194.896 121.107 194.961 121.472 194.961C122.237 194.961 122.886 194.693 123.417 194.156C123.953 193.615 124.222 192.849 124.222 191.859C124.222 191.354 124.146 190.901 123.995 190.5C123.844 190.094 123.638 189.766 123.378 189.516C123.117 189.266 122.826 189.076 122.503 188.945C122.18 188.815 121.836 188.75 121.472 188.75C121.107 188.75 120.761 188.815 120.433 188.945C120.11 189.076 119.818 189.266 119.558 189.516C119.302 189.766 119.099 190.094 118.948 190.5ZM130.514 196.242C129.561 196.242 128.829 195.956 128.319 195.383C127.809 194.81 127.553 194.073 127.553 193.172V187.711H128.944V192.914C128.944 193.518 129.108 194.005 129.436 194.375C129.764 194.745 130.22 194.93 130.803 194.93C131.423 194.93 131.949 194.711 132.382 194.273C132.819 193.831 133.038 193.276 133.038 192.609V187.711H134.428V196H133.085V194.914C132.85 195.273 132.507 195.586 132.053 195.852C131.6 196.112 131.087 196.242 130.514 196.242ZM140.19 196.156C139.831 196.156 139.5 196.109 139.198 196.016C138.901 195.927 138.625 195.786 138.37 195.594C138.12 195.396 137.922 195.122 137.776 194.773C137.635 194.419 137.565 194.003 137.565 193.523V188.961H135.963V187.711H137.565V185.633L138.956 184.914V187.711H141.073V188.961H138.956V193.469C138.956 193.953 139.083 194.31 139.338 194.539C139.594 194.768 139.935 194.883 140.362 194.883C140.695 194.883 141.015 194.844 141.323 194.766V196C140.989 196.104 140.612 196.156 140.19 196.156ZM149.213 196.242C148.479 196.242 147.859 196.034 147.354 195.617C146.854 195.195 146.604 194.604 146.604 193.844C146.604 193.38 146.7 192.966 146.893 192.602C147.085 192.232 147.354 191.927 147.697 191.688C148.041 191.443 148.424 191.247 148.846 191.102C149.268 190.956 149.736 190.849 150.252 190.781L151.916 190.562V190.414C151.916 189.81 151.739 189.372 151.385 189.102C151.036 188.826 150.596 188.688 150.064 188.688C149.518 188.688 149.059 188.828 148.689 189.109C148.32 189.391 148.111 189.763 148.064 190.227H146.721C146.783 189.372 147.124 188.701 147.744 188.211C148.369 187.716 149.153 187.469 150.096 187.469C150.419 187.469 150.726 187.5 151.018 187.562C151.314 187.625 151.601 187.732 151.877 187.883C152.153 188.034 152.393 188.221 152.596 188.445C152.799 188.669 152.96 188.953 153.08 189.297C153.2 189.641 153.26 190.029 153.26 190.461V193.539C153.26 194.008 153.283 194.828 153.33 196H151.986V194.562C151.695 195.089 151.314 195.5 150.846 195.797C150.377 196.094 149.833 196.242 149.213 196.242ZM147.971 193.758C147.971 194.143 148.106 194.451 148.377 194.68C148.648 194.909 148.992 195.023 149.408 195.023C150.106 195.023 150.697 194.76 151.182 194.234C151.671 193.708 151.916 192.979 151.916 192.047V191.695L150.252 191.938C149.497 192.052 148.926 192.263 148.541 192.57C148.161 192.878 147.971 193.273 147.971 193.758ZM165.923 194.781C165.668 195.203 165.314 195.552 164.861 195.828C164.413 196.104 163.882 196.242 163.267 196.242C162.752 196.242 162.267 196.143 161.814 195.945C161.361 195.747 160.962 195.466 160.619 195.102C160.28 194.737 160.012 194.276 159.814 193.719C159.616 193.161 159.517 192.542 159.517 191.859C159.517 191.177 159.616 190.557 159.814 190C160.012 189.438 160.28 188.974 160.619 188.609C160.962 188.245 161.361 187.964 161.814 187.766C162.267 187.568 162.752 187.469 163.267 187.469C163.887 187.469 164.429 187.615 164.892 187.906C165.361 188.193 165.72 188.56 165.97 189.008V187.711H167.314V199.281H165.923V194.781ZM160.931 191.859C160.931 192.828 161.163 193.578 161.627 194.109C162.09 194.635 162.689 194.898 163.423 194.898C164.147 194.898 164.744 194.63 165.212 194.094C165.686 193.557 165.923 192.812 165.923 191.859C165.923 190.906 165.689 190.164 165.22 189.633C164.752 189.096 164.153 188.828 163.423 188.828C162.694 188.828 162.095 189.094 161.627 189.625C161.163 190.156 160.931 190.901 160.931 191.859ZM172.677 196.242C171.724 196.242 170.992 195.956 170.482 195.383C169.971 194.81 169.716 194.073 169.716 193.172V187.711H171.107V192.914C171.107 193.518 171.271 194.005 171.599 194.375C171.927 194.745 172.383 194.93 172.966 194.93C173.586 194.93 174.112 194.711 174.544 194.273C174.982 193.831 175.201 193.276 175.201 192.609V187.711H176.591V196H175.247V194.914C175.013 195.273 174.669 195.586 174.216 195.852C173.763 196.112 173.25 196.242 172.677 196.242ZM178.993 196V187.711H180.384V196H178.993ZM178.735 185.328C178.735 185.062 178.829 184.836 179.017 184.648C179.204 184.461 179.431 184.367 179.696 184.367C179.962 184.367 180.189 184.461 180.376 184.648C180.564 184.836 180.657 185.062 180.657 185.328C180.657 185.589 180.564 185.812 180.376 186C180.189 186.182 179.962 186.273 179.696 186.273C179.431 186.273 179.204 186.182 179.017 186C178.829 185.812 178.735 185.589 178.735 185.328ZM186.434 196.242C185.856 196.242 185.317 196.141 184.817 195.938C184.317 195.734 183.882 195.448 183.513 195.078C183.148 194.703 182.859 194.24 182.645 193.688C182.437 193.135 182.333 192.526 182.333 191.859C182.333 190.557 182.721 189.5 183.497 188.688C184.278 187.875 185.257 187.469 186.434 187.469C187.408 187.469 188.244 187.721 188.942 188.227C189.64 188.727 190.052 189.435 190.177 190.352H188.786C188.651 189.826 188.367 189.432 187.934 189.172C187.502 188.911 187.002 188.781 186.434 188.781C185.669 188.781 185.026 189.065 184.505 189.633C183.989 190.195 183.731 190.938 183.731 191.859C183.731 192.781 183.989 193.523 184.505 194.086C185.026 194.648 185.669 194.93 186.434 194.93C187.033 194.93 187.544 194.786 187.966 194.5C188.388 194.208 188.661 193.797 188.786 193.266H190.177C190.052 194.198 189.645 194.927 188.958 195.453C188.276 195.979 187.434 196.242 186.434 196.242ZM192.032 196V184.078H193.407V191.789L197.313 187.711H199.165L195.954 191.008L199.344 196H197.774L194.993 192L193.407 193.617V196H192.032ZM205.977 186.898C205.977 186.456 206.029 186.057 206.133 185.703C206.237 185.349 206.375 185.06 206.547 184.836C206.724 184.607 206.932 184.417 207.172 184.266C207.412 184.109 207.656 184 207.906 183.938C208.156 183.875 208.419 183.844 208.696 183.844C209.086 183.844 209.438 183.891 209.75 183.984V185.219C209.469 185.151 209.209 185.117 208.969 185.117C208.781 185.117 208.604 185.143 208.438 185.195C208.271 185.242 208.102 185.326 207.93 185.445C207.758 185.565 207.62 185.753 207.516 186.008C207.417 186.263 207.367 186.57 207.367 186.93V187.711H209.485V188.961H207.367V196H205.977V188.961H204.375V187.711H205.977V186.898ZM214.449 196.242C213.684 196.242 212.988 196.076 212.363 195.742C211.743 195.404 211.243 194.898 210.863 194.227C210.488 193.555 210.301 192.766 210.301 191.859C210.301 191.177 210.41 190.557 210.629 190C210.848 189.438 211.147 188.974 211.527 188.609C211.908 188.245 212.348 187.964 212.848 187.766C213.348 187.568 213.881 187.469 214.449 187.469C215.022 187.469 215.559 187.568 216.059 187.766C216.559 187.964 216.996 188.245 217.371 188.609C217.746 188.974 218.043 189.438 218.262 190C218.48 190.557 218.59 191.177 218.59 191.859C218.59 192.542 218.48 193.161 218.262 193.719C218.043 194.276 217.746 194.737 217.371 195.102C216.996 195.466 216.559 195.747 216.059 195.945C215.559 196.143 215.022 196.242 214.449 196.242ZM211.926 190.5C211.775 190.901 211.699 191.354 211.699 191.859C211.699 192.365 211.775 192.82 211.926 193.227C212.077 193.628 212.28 193.953 212.535 194.203C212.796 194.448 213.087 194.635 213.41 194.766C213.738 194.896 214.085 194.961 214.449 194.961C215.215 194.961 215.863 194.693 216.395 194.156C216.931 193.615 217.199 192.849 217.199 191.859C217.199 191.354 217.124 190.901 216.973 190.5C216.822 190.094 216.616 189.766 216.355 189.516C216.095 189.266 215.803 189.076 215.48 188.945C215.158 188.815 214.814 188.75 214.449 188.75C214.085 188.75 213.738 188.815 213.41 188.945C213.087 189.076 212.796 189.266 212.535 189.516C212.28 189.766 212.077 190.094 211.926 190.5ZM220.531 196V187.711H221.859V189.172C222.026 188.734 222.32 188.37 222.742 188.078C223.169 187.781 223.643 187.633 224.164 187.633C224.403 187.633 224.724 187.669 225.125 187.742V189.148C224.802 189.096 224.497 189.07 224.211 189.07C223.523 189.07 222.966 189.323 222.539 189.828C222.117 190.333 221.906 191.052 221.906 191.984V196H220.531ZM226.808 196V187.711H228.152V188.828C228.365 188.458 228.683 188.141 229.105 187.875C229.532 187.604 230.035 187.469 230.613 187.469C231.191 187.469 231.688 187.602 232.105 187.867C232.522 188.128 232.837 188.492 233.05 188.961C233.285 188.57 233.647 188.224 234.136 187.922C234.631 187.62 235.181 187.469 235.785 187.469C236.66 187.469 237.342 187.758 237.832 188.336C238.321 188.909 238.566 189.646 238.566 190.547V196H237.175V190.797C237.175 190.188 237.022 189.701 236.714 189.336C236.412 188.966 235.996 188.781 235.464 188.781C234.886 188.781 234.391 188.992 233.98 189.414C233.574 189.831 233.371 190.378 233.371 191.055V196H231.972V190.797C231.972 190.193 231.824 189.706 231.527 189.336C231.23 188.966 230.819 188.781 230.292 188.781C229.709 188.781 229.214 188.992 228.808 189.414C228.402 189.836 228.199 190.383 228.199 191.055V196H226.808ZM240.57 198.156L241.484 196.078C241.228 196.026 241.025 195.906 240.874 195.719C240.723 195.531 240.648 195.32 240.648 195.086C240.648 194.799 240.749 194.555 240.952 194.352C241.156 194.148 241.403 194.047 241.695 194.047C241.976 194.047 242.215 194.148 242.413 194.352C242.617 194.555 242.718 194.799 242.718 195.086C242.718 195.247 242.648 195.505 242.507 195.859L241.546 198.156H240.57ZM248.968 196V187.711H250.311V188.828C250.525 188.458 250.843 188.141 251.264 187.875C251.692 187.604 252.194 187.469 252.772 187.469C253.35 187.469 253.848 187.602 254.264 187.867C254.681 188.128 254.996 188.492 255.21 188.961C255.444 188.57 255.806 188.224 256.296 187.922C256.791 187.62 257.34 187.469 257.944 187.469C258.819 187.469 259.501 187.758 259.991 188.336C260.481 188.909 260.725 189.646 260.725 190.547V196H259.335V190.797C259.335 190.188 259.181 189.701 258.874 189.336C258.572 188.966 258.155 188.781 257.624 188.781C257.046 188.781 256.551 188.992 256.139 189.414C255.733 189.831 255.53 190.378 255.53 191.055V196H254.132V190.797C254.132 190.193 253.983 189.706 253.686 189.336C253.389 188.966 252.978 188.781 252.452 188.781C251.869 188.781 251.374 188.992 250.968 189.414C250.561 189.836 250.358 190.383 250.358 191.055V196H248.968ZM266.659 196.242C266.096 196.242 265.568 196.141 265.073 195.938C264.578 195.734 264.148 195.448 263.784 195.078C263.419 194.703 263.13 194.24 262.917 193.688C262.708 193.135 262.604 192.526 262.604 191.859C262.604 191.203 262.711 190.596 262.924 190.039C263.143 189.482 263.437 189.018 263.807 188.648C264.177 188.273 264.607 187.984 265.096 187.781C265.591 187.573 266.112 187.469 266.659 187.469C267.461 187.469 268.167 187.674 268.776 188.086C269.385 188.492 269.833 189.057 270.12 189.781C270.411 190.505 270.505 191.31 270.401 192.195H263.971C264.023 193.102 264.297 193.789 264.792 194.258C265.292 194.727 265.909 194.961 266.643 194.961C267.216 194.961 267.706 194.836 268.112 194.586C268.518 194.331 268.789 193.964 268.924 193.484H270.339C270.156 194.333 269.727 195.005 269.049 195.5C268.372 195.995 267.575 196.242 266.659 196.242ZM264.018 191.039H268.995C268.964 190.305 268.729 189.74 268.292 189.344C267.854 188.948 267.305 188.75 266.643 188.75C265.997 188.75 265.432 188.948 264.948 189.344C264.469 189.734 264.159 190.299 264.018 191.039ZM275.905 196.242C275.342 196.242 274.814 196.141 274.319 195.938C273.824 195.734 273.394 195.448 273.03 195.078C272.665 194.703 272.376 194.24 272.163 193.688C271.954 193.135 271.85 192.526 271.85 191.859C271.85 191.203 271.957 190.596 272.17 190.039C272.389 189.482 272.683 189.018 273.053 188.648C273.423 188.273 273.853 187.984 274.342 187.781C274.837 187.573 275.358 187.469 275.905 187.469C276.707 187.469 277.413 187.674 278.022 188.086C278.631 188.492 279.079 189.057 279.366 189.781C279.657 190.505 279.751 191.31 279.647 192.195H273.217C273.269 193.102 273.543 193.789 274.038 194.258C274.538 194.727 275.155 194.961 275.889 194.961C276.462 194.961 276.952 194.836 277.358 194.586C277.764 194.331 278.035 193.964 278.17 193.484H279.584C279.402 194.333 278.972 195.005 278.295 195.5C277.618 195.995 276.821 196.242 275.905 196.242ZM273.264 191.039H278.241C278.209 190.305 277.975 189.74 277.538 189.344C277.1 188.948 276.551 188.75 275.889 188.75C275.243 188.75 274.678 188.948 274.194 189.344C273.715 189.734 273.405 190.299 273.264 191.039ZM284.736 196.156C284.377 196.156 284.046 196.109 283.744 196.016C283.447 195.927 283.171 195.786 282.916 195.594C282.666 195.396 282.468 195.122 282.322 194.773C282.182 194.419 282.111 194.003 282.111 193.523V188.961H280.51V187.711H282.111V185.633L283.502 184.914V187.711H285.619V188.961H283.502V193.469C283.502 193.953 283.63 194.31 283.885 194.539C284.14 194.768 284.481 194.883 284.908 194.883C285.242 194.883 285.562 194.844 285.869 194.766V196C285.536 196.104 285.158 196.156 284.736 196.156ZM93.2812 223.281V211.711H94.625V213.023C94.8854 212.576 95.2448 212.206 95.7031 211.914C96.1667 211.617 96.7135 211.469 97.3438 211.469C97.8594 211.469 98.3438 211.568 98.7969 211.766C99.25 211.964 99.6458 212.245 99.9844 212.609C100.328 212.974 100.596 213.438 100.789 214C100.987 214.557 101.086 215.177 101.086 215.859C101.086 216.542 100.987 217.161 100.789 217.719C100.596 218.276 100.328 218.737 99.9844 219.102C99.6458 219.466 99.25 219.747 98.7969 219.945C98.3438 220.143 97.8594 220.242 97.3438 220.242C96.7396 220.242 96.2083 220.107 95.75 219.836C95.2917 219.56 94.9323 219.208 94.6719 218.781V223.281H93.2812ZM94.6719 215.859C94.6719 216.818 94.9062 217.562 95.375 218.094C95.849 218.62 96.4531 218.883 97.1875 218.883C97.9167 218.883 98.513 218.62 98.9766 218.094C99.4453 217.568 99.6797 216.823 99.6797 215.859C99.6797 214.901 99.4453 214.154 98.9766 213.617C98.5078 213.081 97.9115 212.812 97.1875 212.812C96.4635 212.812 95.862 213.083 95.3828 213.625C94.9089 214.167 94.6719 214.911 94.6719 215.859ZM106.644 220.242C105.879 220.242 105.183 220.076 104.558 219.742C103.939 219.404 103.439 218.898 103.058 218.227C102.683 217.555 102.496 216.766 102.496 215.859C102.496 215.177 102.605 214.557 102.824 214C103.043 213.438 103.342 212.974 103.722 212.609C104.103 212.245 104.543 211.964 105.043 211.766C105.543 211.568 106.077 211.469 106.644 211.469C107.217 211.469 107.754 211.568 108.254 211.766C108.754 211.964 109.191 212.245 109.566 212.609C109.941 212.974 110.238 213.438 110.457 214C110.676 214.557 110.785 215.177 110.785 215.859C110.785 216.542 110.676 217.161 110.457 217.719C110.238 218.276 109.941 218.737 109.566 219.102C109.191 219.466 108.754 219.747 108.254 219.945C107.754 220.143 107.217 220.242 106.644 220.242ZM104.121 214.5C103.97 214.901 103.894 215.354 103.894 215.859C103.894 216.365 103.97 216.82 104.121 217.227C104.272 217.628 104.475 217.953 104.73 218.203C104.991 218.448 105.282 218.635 105.605 218.766C105.933 218.896 106.28 218.961 106.644 218.961C107.41 218.961 108.058 218.693 108.59 218.156C109.126 217.615 109.394 216.849 109.394 215.859C109.394 215.354 109.319 214.901 109.168 214.5C109.017 214.094 108.811 213.766 108.551 213.516C108.29 213.266 107.998 213.076 107.676 212.945C107.353 212.815 107.009 212.75 106.644 212.75C106.28 212.75 105.933 212.815 105.605 212.945C105.282 213.076 104.991 213.266 104.73 213.516C104.475 213.766 104.272 214.094 104.121 214.5ZM115.836 220.156C115.476 220.156 115.145 220.109 114.843 220.016C114.546 219.927 114.27 219.786 114.015 219.594C113.765 219.396 113.567 219.122 113.421 218.773C113.281 218.419 113.211 218.003 113.211 217.523V212.961H111.609V211.711H113.211V209.633L114.601 208.914V211.711H116.718V212.961H114.601V217.469C114.601 217.953 114.729 218.31 114.984 218.539C115.239 218.768 115.58 218.883 116.007 218.883C116.341 218.883 116.661 218.844 116.968 218.766V220C116.635 220.104 116.257 220.156 115.836 220.156ZM121.995 220.242C121.433 220.242 120.904 220.141 120.41 219.938C119.915 219.734 119.485 219.448 119.12 219.078C118.756 218.703 118.467 218.24 118.253 217.688C118.045 217.135 117.941 216.526 117.941 215.859C117.941 215.203 118.048 214.596 118.261 214.039C118.48 213.482 118.774 213.018 119.144 212.648C119.514 212.273 119.943 211.984 120.433 211.781C120.928 211.573 121.449 211.469 121.995 211.469C122.798 211.469 123.503 211.674 124.113 212.086C124.722 212.492 125.17 213.057 125.456 213.781C125.748 214.505 125.842 215.31 125.738 216.195H119.308C119.36 217.102 119.633 217.789 120.128 218.258C120.628 218.727 121.245 218.961 121.98 218.961C122.553 218.961 123.042 218.836 123.449 218.586C123.855 218.331 124.126 217.964 124.261 217.484H125.675C125.493 218.333 125.063 219.005 124.386 219.5C123.709 219.995 122.912 220.242 121.995 220.242ZM119.355 215.039H124.331C124.3 214.305 124.066 213.74 123.628 213.344C123.191 212.948 122.641 212.75 121.98 212.75C121.334 212.75 120.769 212.948 120.285 213.344C119.805 213.734 119.495 214.299 119.355 215.039ZM127.718 220V211.711H129.062V212.828C129.296 212.458 129.648 212.141 130.116 211.875C130.585 211.604 131.124 211.469 131.734 211.469C132.707 211.469 133.455 211.758 133.976 212.336C134.497 212.909 134.757 213.646 134.757 214.547V220H133.366V214.797C133.366 214.188 133.197 213.701 132.859 213.336C132.52 212.966 132.049 212.781 131.444 212.781C130.804 212.781 130.254 213.003 129.796 213.445C129.338 213.883 129.109 214.435 129.109 215.102V220H127.718ZM140.104 220.156C139.745 220.156 139.414 220.109 139.112 220.016C138.815 219.927 138.539 219.786 138.284 219.594C138.034 219.396 137.836 219.122 137.69 218.773C137.55 218.419 137.479 218.003 137.479 217.523V212.961H135.878V211.711H137.479V209.633L138.87 208.914V211.711H140.987V212.961H138.87V217.469C138.87 217.953 138.998 218.31 139.253 218.539C139.508 218.768 139.849 218.883 140.276 218.883C140.61 218.883 140.93 218.844 141.237 218.766V220C140.904 220.104 140.526 220.156 140.104 220.156ZM142.663 220V211.711H144.053V220H142.663ZM142.405 209.328C142.405 209.062 142.499 208.836 142.686 208.648C142.874 208.461 143.1 208.367 143.366 208.367C143.632 208.367 143.858 208.461 144.046 208.648C144.233 208.836 144.327 209.062 144.327 209.328C144.327 209.589 144.233 209.812 144.046 210C143.858 210.182 143.632 210.273 143.366 210.273C143.1 210.273 142.874 210.182 142.686 210C142.499 209.812 142.405 209.589 142.405 209.328ZM148.612 220.242C147.877 220.242 147.258 220.034 146.752 219.617C146.252 219.195 146.002 218.604 146.002 217.844C146.002 217.38 146.099 216.966 146.291 216.602C146.484 216.232 146.752 215.927 147.096 215.688C147.44 215.443 147.823 215.247 148.245 215.102C148.666 214.956 149.135 214.849 149.651 214.781L151.315 214.562V214.414C151.315 213.81 151.138 213.372 150.784 213.102C150.435 212.826 149.995 212.688 149.463 212.688C148.916 212.688 148.458 212.828 148.088 213.109C147.719 213.391 147.51 213.763 147.463 214.227H146.12C146.182 213.372 146.523 212.701 147.143 212.211C147.768 211.716 148.552 211.469 149.495 211.469C149.817 211.469 150.125 211.5 150.416 211.562C150.713 211.625 151 211.732 151.276 211.883C151.552 212.034 151.791 212.221 151.995 212.445C152.198 212.669 152.359 212.953 152.479 213.297C152.599 213.641 152.659 214.029 152.659 214.461V217.539C152.659 218.008 152.682 218.828 152.729 220H151.385V218.562C151.094 219.089 150.713 219.5 150.245 219.797C149.776 220.094 149.232 220.242 148.612 220.242ZM147.37 217.758C147.37 218.143 147.505 218.451 147.776 218.68C148.047 218.909 148.39 219.023 148.807 219.023C149.505 219.023 150.096 218.76 150.581 218.234C151.07 217.708 151.315 216.979 151.315 216.047V215.695L149.651 215.938C148.896 216.052 148.325 216.263 147.94 216.57C147.56 216.878 147.37 217.273 147.37 217.758ZM155.061 220V208.078H156.451V220H155.061ZM163.162 220V211.711H164.49V213.172C164.657 212.734 164.951 212.37 165.373 212.078C165.8 211.781 166.274 211.633 166.795 211.633C167.034 211.633 167.355 211.669 167.756 211.742V213.148C167.433 213.096 167.128 213.07 166.842 213.07C166.154 213.07 165.597 213.323 165.17 213.828C164.748 214.333 164.537 215.052 164.537 215.984V220H163.162ZM172.978 220.242C172.212 220.242 171.517 220.076 170.892 219.742C170.272 219.404 169.772 218.898 169.392 218.227C169.017 217.555 168.83 216.766 168.83 215.859C168.83 215.177 168.939 214.557 169.158 214C169.377 213.438 169.676 212.974 170.056 212.609C170.436 212.245 170.877 211.964 171.377 211.766C171.877 211.568 172.41 211.469 172.978 211.469C173.551 211.469 174.087 211.568 174.587 211.766C175.087 211.964 175.525 212.245 175.9 212.609C176.275 212.974 176.572 213.438 176.791 214C177.009 214.557 177.119 215.177 177.119 215.859C177.119 216.542 177.009 217.161 176.791 217.719C176.572 218.276 176.275 218.737 175.9 219.102C175.525 219.466 175.087 219.747 174.587 219.945C174.087 220.143 173.551 220.242 172.978 220.242ZM170.455 214.5C170.304 214.901 170.228 215.354 170.228 215.859C170.228 216.365 170.304 216.82 170.455 217.227C170.606 217.628 170.809 217.953 171.064 218.203C171.324 218.448 171.616 218.635 171.939 218.766C172.267 218.896 172.613 218.961 172.978 218.961C173.744 218.961 174.392 218.693 174.923 218.156C175.46 217.615 175.728 216.849 175.728 215.859C175.728 215.354 175.653 214.901 175.502 214.5C175.35 214.094 175.145 213.766 174.884 213.516C174.624 213.266 174.332 213.076 174.009 212.945C173.686 212.815 173.343 212.75 172.978 212.75C172.613 212.75 172.267 212.815 171.939 212.945C171.616 213.076 171.324 213.266 171.064 213.516C170.809 213.766 170.606 214.094 170.455 214.5ZM182.677 220.242C181.911 220.242 181.216 220.076 180.591 219.742C179.971 219.404 179.471 218.898 179.091 218.227C178.716 217.555 178.529 216.766 178.529 215.859C178.529 215.177 178.638 214.557 178.857 214C179.076 213.438 179.375 212.974 179.755 212.609C180.135 212.245 180.576 211.964 181.076 211.766C181.576 211.568 182.109 211.469 182.677 211.469C183.25 211.469 183.786 211.568 184.286 211.766C184.786 211.964 185.224 212.245 185.599 212.609C185.974 212.974 186.271 213.438 186.49 214C186.708 214.557 186.818 215.177 186.818 215.859C186.818 216.542 186.708 217.161 186.49 217.719C186.271 218.276 185.974 218.737 185.599 219.102C185.224 219.466 184.786 219.747 184.286 219.945C183.786 220.143 183.25 220.242 182.677 220.242ZM180.154 214.5C180.003 214.901 179.927 215.354 179.927 215.859C179.927 216.365 180.003 216.82 180.154 217.227C180.305 217.628 180.508 217.953 180.763 218.203C181.023 218.448 181.315 218.635 181.638 218.766C181.966 218.896 182.312 218.961 182.677 218.961C183.443 218.961 184.091 218.693 184.622 218.156C185.159 217.615 185.427 216.849 185.427 215.859C185.427 215.354 185.352 214.901 185.201 214.5C185.049 214.094 184.844 213.766 184.583 213.516C184.323 213.266 184.031 213.076 183.708 212.945C183.385 212.815 183.042 212.75 182.677 212.75C182.312 212.75 181.966 212.815 181.638 212.945C181.315 213.076 181.023 213.266 180.763 213.516C180.508 213.766 180.305 214.094 180.154 214.5ZM188.759 220V211.711H190.103V212.828C190.316 212.458 190.634 212.141 191.056 211.875C191.483 211.604 191.985 211.469 192.564 211.469C193.142 211.469 193.639 211.602 194.056 211.867C194.472 212.128 194.788 212.492 195.001 212.961C195.235 212.57 195.597 212.224 196.087 211.922C196.582 211.62 197.131 211.469 197.735 211.469C198.61 211.469 199.293 211.758 199.782 212.336C200.272 212.909 200.517 213.646 200.517 214.547V220H199.126V214.797C199.126 214.188 198.972 213.701 198.665 213.336C198.363 212.966 197.946 212.781 197.415 212.781C196.837 212.781 196.342 212.992 195.931 213.414C195.524 213.831 195.321 214.378 195.321 215.055V220H193.923V214.797C193.923 214.193 193.774 213.706 193.478 213.336C193.181 212.966 192.769 212.781 192.243 212.781C191.66 212.781 191.165 212.992 190.759 213.414C190.353 213.836 190.149 214.383 190.149 215.055V220H188.759ZM202.895 220V211.711H204.239V212.828C204.453 212.458 204.77 212.141 205.192 211.875C205.619 211.604 206.122 211.469 206.7 211.469C207.278 211.469 207.776 211.602 208.192 211.867C208.609 212.128 208.924 212.492 209.138 212.961C209.372 212.57 209.734 212.224 210.224 211.922C210.718 211.62 211.268 211.469 211.872 211.469C212.747 211.469 213.429 211.758 213.919 212.336C214.408 212.909 214.653 213.646 214.653 214.547V220H213.263V214.797C213.263 214.188 213.109 213.701 212.802 213.336C212.5 212.966 212.083 212.781 211.552 212.781C210.974 212.781 210.479 212.992 210.067 213.414C209.661 213.831 209.458 214.378 209.458 215.055V220H208.059V214.797C208.059 214.193 207.911 213.706 207.614 213.336C207.317 212.966 206.906 212.781 206.38 212.781C205.796 212.781 205.302 212.992 204.895 213.414C204.489 213.836 204.286 214.383 204.286 215.055V220H202.895ZM219.063 220.242C218.329 220.242 217.709 220.034 217.204 219.617C216.704 219.195 216.454 218.604 216.454 217.844C216.454 217.38 216.55 216.966 216.743 216.602C216.936 216.232 217.204 215.927 217.548 215.688C217.891 215.443 218.274 215.247 218.696 215.102C219.118 214.956 219.587 214.849 220.102 214.781L221.766 214.562V214.414C221.766 213.81 221.589 213.372 221.235 213.102C220.886 212.826 220.446 212.688 219.915 212.688C219.368 212.688 218.909 212.828 218.54 213.109C218.17 213.391 217.962 213.763 217.915 214.227H216.571C216.633 213.372 216.975 212.701 217.594 212.211C218.219 211.716 219.003 211.469 219.946 211.469C220.269 211.469 220.576 211.5 220.868 211.562C221.165 211.625 221.451 211.732 221.727 211.883C222.003 212.034 222.243 212.221 222.446 212.445C222.649 212.669 222.811 212.953 222.93 213.297C223.05 213.641 223.11 214.029 223.11 214.461V217.539C223.11 218.008 223.133 218.828 223.18 220H221.837V218.562C221.545 219.089 221.165 219.5 220.696 219.797C220.227 220.094 219.683 220.242 219.063 220.242ZM217.821 217.758C217.821 218.143 217.956 218.451 218.227 218.68C218.498 218.909 218.842 219.023 219.258 219.023C219.956 219.023 220.548 218.76 221.032 218.234C221.521 217.708 221.766 216.979 221.766 216.047V215.695L220.102 215.938C219.347 216.052 218.777 216.263 218.391 216.57C218.011 216.878 217.821 217.273 217.821 217.758ZM228.465 220.156C228.106 220.156 227.775 220.109 227.473 220.016C227.176 219.927 226.9 219.786 226.645 219.594C226.395 219.396 226.197 219.122 226.051 218.773C225.911 218.419 225.84 218.003 225.84 217.523V212.961H224.239V211.711H225.84V209.633L227.231 208.914V211.711H229.348V212.961H227.231V217.469C227.231 217.953 227.358 218.31 227.614 218.539C227.869 218.768 228.21 218.883 228.637 218.883C228.97 218.883 229.291 218.844 229.598 218.766V220C229.265 220.104 228.887 220.156 228.465 220.156ZM234.625 220.242C234.063 220.242 233.534 220.141 233.039 219.938C232.544 219.734 232.115 219.448 231.75 219.078C231.386 218.703 231.097 218.24 230.883 217.688C230.675 217.135 230.57 216.526 230.57 215.859C230.57 215.203 230.677 214.596 230.891 214.039C231.11 213.482 231.404 213.018 231.774 212.648C232.143 212.273 232.573 211.984 233.063 211.781C233.557 211.573 234.078 211.469 234.625 211.469C235.427 211.469 236.133 211.674 236.742 212.086C237.352 212.492 237.8 213.057 238.086 213.781C238.378 214.505 238.472 215.31 238.367 216.195H231.938C231.99 217.102 232.263 217.789 232.758 218.258C233.258 218.727 233.875 218.961 234.61 218.961C235.182 218.961 235.672 218.836 236.078 218.586C236.485 218.331 236.755 217.964 236.891 217.484H238.305C238.123 218.333 237.693 219.005 237.016 219.5C236.339 219.995 235.542 220.242 234.625 220.242ZM231.985 215.039H236.961C236.93 214.305 236.695 213.74 236.258 213.344C235.82 212.948 235.271 212.75 234.61 212.75C233.964 212.75 233.399 212.948 232.914 213.344C232.435 213.734 232.125 214.299 231.985 215.039ZM243.34 220.242C242.725 220.242 242.168 220.135 241.668 219.922C241.168 219.703 240.756 219.372 240.434 218.93C240.111 218.482 239.931 217.953 239.895 217.344H241.277C241.324 217.875 241.54 218.292 241.926 218.594C242.311 218.891 242.803 219.039 243.402 219.039C243.631 219.039 243.842 219.021 244.035 218.984C244.228 218.948 244.413 218.888 244.59 218.805C244.772 218.721 244.915 218.599 245.02 218.438C245.124 218.271 245.176 218.073 245.176 217.844C245.176 217.5 245.056 217.219 244.816 217C244.577 216.781 244.254 216.63 243.848 216.547L242.379 216.227C241.697 216.076 241.158 215.81 240.762 215.43C240.366 215.044 240.168 214.552 240.168 213.953C240.168 213.453 240.316 213.01 240.613 212.625C240.915 212.24 241.298 211.951 241.762 211.758C242.23 211.565 242.73 211.469 243.262 211.469C243.793 211.469 244.288 211.57 244.746 211.773C245.21 211.971 245.595 212.279 245.902 212.695C246.215 213.112 246.384 213.599 246.41 214.156H245.051C245.014 213.719 244.822 213.362 244.473 213.086C244.129 212.81 243.712 212.672 243.223 212.672C242.77 212.672 242.381 212.781 242.059 213C241.741 213.214 241.582 213.5 241.582 213.859C241.582 214.13 241.684 214.357 241.887 214.539C242.095 214.716 242.413 214.857 242.84 214.961L244.301 215.281C245.004 215.427 245.561 215.714 245.973 216.141C246.384 216.568 246.59 217.096 246.59 217.727C246.59 218.081 246.525 218.404 246.395 218.695C246.264 218.982 246.09 219.221 245.871 219.414C245.658 219.602 245.408 219.76 245.121 219.891C244.835 220.016 244.543 220.104 244.246 220.156C243.949 220.214 243.647 220.242 243.34 220.242ZM248.203 222.156L249.117 220.078C248.862 220.026 248.659 219.906 248.508 219.719C248.357 219.531 248.281 219.32 248.281 219.086C248.281 218.799 248.383 218.555 248.586 218.352C248.789 218.148 249.036 218.047 249.328 218.047C249.609 218.047 249.849 218.148 250.047 218.352C250.25 218.555 250.351 218.799 250.351 219.086C250.351 219.247 250.281 219.505 250.14 219.859L249.179 222.156H248.203ZM258.757 220.242C258.023 220.242 257.403 220.034 256.898 219.617C256.398 219.195 256.148 218.604 256.148 217.844C256.148 217.38 256.244 216.966 256.437 216.602C256.63 216.232 256.898 215.927 257.242 215.688C257.585 215.443 257.968 215.247 258.39 215.102C258.812 214.956 259.281 214.849 259.796 214.781L261.46 214.562V214.414C261.46 213.81 261.283 213.372 260.929 213.102C260.58 212.826 260.14 212.688 259.609 212.688C259.062 212.688 258.603 212.828 258.234 213.109C257.864 213.391 257.656 213.763 257.609 214.227H256.265C256.327 213.372 256.669 212.701 257.288 212.211C257.913 211.716 258.697 211.469 259.64 211.469C259.963 211.469 260.27 211.5 260.562 211.562C260.859 211.625 261.145 211.732 261.421 211.883C261.697 212.034 261.937 212.221 262.14 212.445C262.343 212.669 262.505 212.953 262.624 213.297C262.744 213.641 262.804 214.029 262.804 214.461V217.539C262.804 218.008 262.827 218.828 262.874 220H261.531V218.562C261.239 219.089 260.859 219.5 260.39 219.797C259.921 220.094 259.377 220.242 258.757 220.242ZM257.515 217.758C257.515 218.143 257.65 218.451 257.921 218.68C258.192 218.909 258.536 219.023 258.952 219.023C259.65 219.023 260.242 218.76 260.726 218.234C261.215 217.708 261.46 216.979 261.46 216.047V215.695L259.796 215.938C259.041 216.052 258.471 216.263 258.085 216.57C257.705 216.878 257.515 217.273 257.515 217.758ZM265.206 220V211.711H266.55V212.828C266.784 212.458 267.136 212.141 267.605 211.875C268.073 211.604 268.612 211.469 269.222 211.469C270.196 211.469 270.943 211.758 271.464 212.336C271.985 212.909 272.245 213.646 272.245 214.547V220H270.855V214.797C270.855 214.188 270.685 213.701 270.347 213.336C270.008 212.966 269.537 212.781 268.933 212.781C268.292 212.781 267.743 213.003 267.284 213.445C266.826 213.883 266.597 214.435 266.597 215.102V220H265.206ZM277.889 220.242C277.374 220.242 276.889 220.143 276.436 219.945C275.983 219.747 275.585 219.466 275.241 219.102C274.903 218.737 274.634 218.276 274.436 217.719C274.238 217.161 274.139 216.542 274.139 215.859C274.139 215.177 274.238 214.557 274.436 214C274.634 213.438 274.903 212.974 275.241 212.609C275.585 212.245 275.983 211.964 276.436 211.766C276.889 211.568 277.374 211.469 277.889 211.469C278.478 211.469 278.999 211.607 279.452 211.883C279.91 212.154 280.275 212.503 280.546 212.93V208.078H281.936V220H280.593V218.719C280.332 219.156 279.973 219.521 279.514 219.812C279.056 220.099 278.514 220.242 277.889 220.242ZM275.554 215.859C275.554 216.828 275.785 217.578 276.249 218.109C276.712 218.635 277.311 218.898 278.046 218.898C278.77 218.898 279.366 218.63 279.835 218.094C280.309 217.557 280.546 216.812 280.546 215.859C280.546 214.906 280.311 214.164 279.843 213.633C279.374 213.096 278.775 212.828 278.046 212.828C277.317 212.828 276.718 213.094 276.249 213.625C275.785 214.156 275.554 214.901 275.554 215.859ZM289.381 210.898C289.381 210.456 289.431 210.057 289.53 209.703C289.629 209.349 289.759 209.06 289.92 208.836C290.082 208.607 290.274 208.417 290.498 208.266C290.722 208.109 290.952 208 291.186 207.938C291.42 207.875 291.668 207.844 291.928 207.844C292.288 207.844 292.623 207.885 292.936 207.969V209.148C292.733 209.107 292.493 209.086 292.217 209.086C292.087 209.086 291.959 209.099 291.834 209.125C291.715 209.151 291.587 209.206 291.452 209.289C291.321 209.367 291.207 209.471 291.108 209.602C291.009 209.727 290.928 209.901 290.866 210.125C290.803 210.349 290.772 210.607 290.772 210.898V211.711H296.28V220H294.889V212.961H290.772V220H289.381V212.961H287.78V211.711H289.381V210.898ZM294.631 209.328C294.631 209.062 294.725 208.836 294.913 208.648C295.1 208.461 295.327 208.367 295.592 208.367C295.858 208.367 296.084 208.461 296.272 208.648C296.459 208.836 296.553 209.062 296.553 209.328C296.553 209.589 296.459 209.812 296.272 210C296.084 210.182 295.858 210.273 295.592 210.273C295.327 210.273 295.1 210.182 294.913 210C294.725 209.812 294.631 209.589 294.631 209.328ZM298.674 220V211.711H300.018V212.828C300.252 212.458 300.604 212.141 301.072 211.875C301.541 211.604 302.08 211.469 302.69 211.469C303.664 211.469 304.411 211.758 304.932 212.336C305.453 212.909 305.713 213.646 305.713 214.547V220H304.322V214.797C304.322 214.188 304.153 213.701 303.815 213.336C303.476 212.966 303.005 212.781 302.401 212.781C301.76 212.781 301.21 213.003 300.752 213.445C300.294 213.883 300.065 214.435 300.065 215.102V220H298.674ZM311.357 220.242C310.842 220.242 310.357 220.143 309.904 219.945C309.451 219.747 309.053 219.466 308.709 219.102C308.37 218.737 308.102 218.276 307.904 217.719C307.706 217.161 307.607 216.542 307.607 215.859C307.607 215.177 307.706 214.557 307.904 214C308.102 213.438 308.37 212.974 308.709 212.609C309.053 212.245 309.451 211.964 309.904 211.766C310.357 211.568 310.842 211.469 311.357 211.469C311.946 211.469 312.467 211.607 312.92 211.883C313.378 212.154 313.743 212.503 314.014 212.93V208.078H315.404V220H314.061V218.719C313.8 219.156 313.441 219.521 312.982 219.812C312.524 220.099 311.982 220.242 311.357 220.242ZM309.021 215.859C309.021 216.828 309.253 217.578 309.717 218.109C310.18 218.635 310.779 218.898 311.514 218.898C312.238 218.898 312.834 218.63 313.303 218.094C313.777 217.557 314.014 216.812 314.014 215.859C314.014 214.906 313.779 214.164 313.311 213.633C312.842 213.096 312.243 212.828 311.514 212.828C310.784 212.828 310.186 213.094 309.717 213.625C309.253 214.156 309.021 214.901 309.021 215.859ZM94.3672 247.281L95.8438 243.633L92.3672 235.711H93.8906L96.5625 241.859L99.0547 235.711H100.492L95.8203 247.281H94.3672ZM105.051 244.242C104.285 244.242 103.59 244.076 102.965 243.742C102.345 243.404 101.845 242.898 101.465 242.227C101.09 241.555 100.902 240.766 100.902 239.859C100.902 239.177 101.012 238.557 101.23 238C101.449 237.438 101.748 236.974 102.129 236.609C102.509 236.245 102.949 235.964 103.449 235.766C103.949 235.568 104.483 235.469 105.051 235.469C105.623 235.469 106.16 235.568 106.66 235.766C107.16 235.964 107.597 236.245 107.972 236.609C108.347 236.974 108.644 237.438 108.863 238C109.082 238.557 109.191 239.177 109.191 239.859C109.191 240.542 109.082 241.161 108.863 241.719C108.644 242.276 108.347 242.737 107.972 243.102C107.597 243.466 107.16 243.747 106.66 243.945C106.16 244.143 105.623 244.242 105.051 244.242ZM102.527 238.5C102.376 238.901 102.301 239.354 102.301 239.859C102.301 240.365 102.376 240.82 102.527 241.227C102.678 241.628 102.881 241.953 103.137 242.203C103.397 242.448 103.689 242.635 104.012 242.766C104.34 242.896 104.686 242.961 105.051 242.961C105.816 242.961 106.465 242.693 106.996 242.156C107.532 241.615 107.801 240.849 107.801 239.859C107.801 239.354 107.725 238.901 107.574 238.5C107.423 238.094 107.217 237.766 106.957 237.516C106.696 237.266 106.405 237.076 106.082 236.945C105.759 236.815 105.415 236.75 105.051 236.75C104.686 236.75 104.34 236.815 104.012 236.945C103.689 237.076 103.397 237.266 103.137 237.516C102.881 237.766 102.678 238.094 102.527 238.5ZM114.093 244.242C113.14 244.242 112.408 243.956 111.898 243.383C111.388 242.81 111.132 242.073 111.132 241.172V235.711H112.523V240.914C112.523 241.518 112.687 242.005 113.015 242.375C113.343 242.745 113.799 242.93 114.382 242.93C115.002 242.93 115.528 242.711 115.961 242.273C116.398 241.831 116.617 241.276 116.617 240.609V235.711H118.007V244H116.664V242.914C116.429 243.273 116.086 243.586 115.632 243.852C115.179 244.112 114.666 244.242 114.093 244.242ZM120.41 244V235.711H121.738V237.172C121.904 236.734 122.199 236.37 122.62 236.078C123.048 235.781 123.521 235.633 124.042 235.633C124.282 235.633 124.602 235.669 125.003 235.742V237.148C124.68 237.096 124.376 237.07 124.089 237.07C123.402 237.07 122.844 237.323 122.417 237.828C121.995 238.333 121.785 239.052 121.785 239.984V244H120.41ZM130.995 244V235.711H132.386V244H130.995ZM130.737 233.328C130.737 233.062 130.831 232.836 131.018 232.648C131.206 232.461 131.432 232.367 131.698 232.367C131.964 232.367 132.19 232.461 132.378 232.648C132.565 232.836 132.659 233.062 132.659 233.328C132.659 233.589 132.565 233.812 132.378 234C132.19 234.182 131.964 234.273 131.698 234.273C131.432 234.273 131.206 234.182 131.018 234C130.831 233.812 130.737 233.589 130.737 233.328ZM138.085 244.242C137.569 244.242 137.085 244.143 136.632 243.945C136.178 243.747 135.78 243.466 135.436 243.102C135.098 242.737 134.829 242.276 134.632 241.719C134.434 241.161 134.335 240.542 134.335 239.859C134.335 239.177 134.434 238.557 134.632 238C134.829 237.438 135.098 236.974 135.436 236.609C135.78 236.245 136.178 235.964 136.632 235.766C137.085 235.568 137.569 235.469 138.085 235.469C138.673 235.469 139.194 235.607 139.647 235.883C140.105 236.154 140.47 236.503 140.741 236.93V232.078H142.132V244H140.788V242.719C140.527 243.156 140.168 243.521 139.71 243.812C139.251 244.099 138.71 244.242 138.085 244.242ZM135.749 239.859C135.749 240.828 135.98 241.578 136.444 242.109C136.908 242.635 137.507 242.898 138.241 242.898C138.965 242.898 139.561 242.63 140.03 242.094C140.504 241.557 140.741 240.812 140.741 239.859C140.741 238.906 140.507 238.164 140.038 237.633C139.569 237.096 138.97 236.828 138.241 236.828C137.512 236.828 136.913 237.094 136.444 237.625C135.98 238.156 135.749 238.901 135.749 239.859ZM148.135 244.242C147.573 244.242 147.044 244.141 146.549 243.938C146.054 243.734 145.625 243.448 145.26 243.078C144.896 242.703 144.607 242.24 144.393 241.688C144.185 241.135 144.081 240.526 144.081 239.859C144.081 239.203 144.187 238.596 144.401 238.039C144.62 237.482 144.914 237.018 145.284 236.648C145.653 236.273 146.083 235.984 146.573 235.781C147.067 235.573 147.588 235.469 148.135 235.469C148.937 235.469 149.643 235.674 150.252 236.086C150.862 236.492 151.31 237.057 151.596 237.781C151.888 238.505 151.982 239.31 151.877 240.195H145.448C145.5 241.102 145.773 241.789 146.268 242.258C146.768 242.727 147.385 242.961 148.12 242.961C148.692 242.961 149.182 242.836 149.588 242.586C149.995 242.331 150.265 241.964 150.401 241.484H151.815C151.633 242.333 151.203 243.005 150.526 243.5C149.849 243.995 149.052 244.242 148.135 244.242ZM145.495 239.039H150.471C150.44 238.305 150.206 237.74 149.768 237.344C149.331 236.948 148.781 236.75 148.12 236.75C147.474 236.75 146.909 236.948 146.424 237.344C145.945 237.734 145.635 238.299 145.495 239.039ZM156.014 244.242C155.279 244.242 154.66 244.034 154.154 243.617C153.654 243.195 153.404 242.604 153.404 241.844C153.404 241.38 153.501 240.966 153.694 240.602C153.886 240.232 154.154 239.927 154.498 239.688C154.842 239.443 155.225 239.247 155.647 239.102C156.069 238.956 156.537 238.849 157.053 238.781L158.717 238.562V238.414C158.717 237.81 158.54 237.372 158.186 237.102C157.837 236.826 157.397 236.688 156.865 236.688C156.319 236.688 155.86 236.828 155.49 237.109C155.121 237.391 154.912 237.763 154.865 238.227H153.522C153.584 237.372 153.925 236.701 154.545 236.211C155.17 235.716 155.954 235.469 156.897 235.469C157.22 235.469 157.527 235.5 157.819 235.562C158.115 235.625 158.402 235.732 158.678 235.883C158.954 236.034 159.194 236.221 159.397 236.445C159.6 236.669 159.761 236.953 159.881 237.297C160.001 237.641 160.061 238.029 160.061 238.461V241.539C160.061 242.008 160.084 242.828 160.131 244H158.787V242.562C158.496 243.089 158.115 243.5 157.647 243.797C157.178 244.094 156.634 244.242 156.014 244.242ZM154.772 241.758C154.772 242.143 154.907 242.451 155.178 242.68C155.449 242.909 155.793 243.023 156.209 243.023C156.907 243.023 157.498 242.76 157.983 242.234C158.472 241.708 158.717 240.979 158.717 240.047V239.695L157.053 239.938C156.298 240.052 155.727 240.263 155.342 240.57C154.962 240.878 154.772 241.273 154.772 241.758ZM162.463 244V232.078H163.854V244H162.463ZM170.564 247.281V235.711H171.908V237.023C172.168 236.576 172.528 236.206 172.986 235.914C173.449 235.617 173.996 235.469 174.627 235.469C175.142 235.469 175.627 235.568 176.08 235.766C176.533 235.964 176.929 236.245 177.267 236.609C177.611 236.974 177.879 237.438 178.072 238C178.27 238.557 178.369 239.177 178.369 239.859C178.369 240.542 178.27 241.161 178.072 241.719C177.879 242.276 177.611 242.737 177.267 243.102C176.929 243.466 176.533 243.747 176.08 243.945C175.627 244.143 175.142 244.242 174.627 244.242C174.022 244.242 173.491 244.107 173.033 243.836C172.574 243.56 172.215 243.208 171.955 242.781V247.281H170.564ZM171.955 239.859C171.955 240.818 172.189 241.562 172.658 242.094C173.132 242.62 173.736 242.883 174.47 242.883C175.199 242.883 175.796 242.62 176.259 242.094C176.728 241.568 176.962 240.823 176.962 239.859C176.962 238.901 176.728 238.154 176.259 237.617C175.791 237.081 175.194 236.812 174.47 236.812C173.746 236.812 173.145 237.083 172.666 237.625C172.192 238.167 171.955 238.911 171.955 239.859ZM180.31 244V232.078H181.701V244H180.31ZM186.259 244.242C185.524 244.242 184.905 244.034 184.399 243.617C183.899 243.195 183.649 242.604 183.649 241.844C183.649 241.38 183.746 240.966 183.939 240.602C184.131 240.232 184.399 239.927 184.743 239.688C185.087 239.443 185.47 239.247 185.892 239.102C186.314 238.956 186.782 238.849 187.298 238.781L188.962 238.562V238.414C188.962 237.81 188.785 237.372 188.431 237.102C188.082 236.826 187.642 236.688 187.11 236.688C186.564 236.688 186.105 236.828 185.735 237.109C185.366 237.391 185.157 237.763 185.11 238.227H183.767C183.829 237.372 184.17 236.701 184.79 236.211C185.415 235.716 186.199 235.469 187.142 235.469C187.465 235.469 187.772 235.5 188.064 235.562C188.36 235.625 188.647 235.732 188.923 235.883C189.199 236.034 189.439 236.221 189.642 236.445C189.845 236.669 190.006 236.953 190.126 237.297C190.246 237.641 190.306 238.029 190.306 238.461V241.539C190.306 242.008 190.329 242.828 190.376 244H189.032V242.562C188.741 243.089 188.36 243.5 187.892 243.797C187.423 244.094 186.879 244.242 186.259 244.242ZM185.017 241.758C185.017 242.143 185.152 242.451 185.423 242.68C185.694 242.909 186.038 243.023 186.454 243.023C187.152 243.023 187.743 242.76 188.228 242.234C188.717 241.708 188.962 240.979 188.962 240.047V239.695L187.298 239.938C186.543 240.052 185.972 240.263 185.587 240.57C185.207 240.878 185.017 241.273 185.017 241.758ZM196.309 244.242C195.731 244.242 195.192 244.141 194.692 243.938C194.192 243.734 193.757 243.448 193.388 243.078C193.023 242.703 192.734 242.24 192.52 241.688C192.312 241.135 192.208 240.526 192.208 239.859C192.208 238.557 192.596 237.5 193.372 236.688C194.153 235.875 195.132 235.469 196.309 235.469C197.283 235.469 198.119 235.721 198.817 236.227C199.515 236.727 199.927 237.435 200.052 238.352H198.661C198.526 237.826 198.242 237.432 197.809 237.172C197.377 236.911 196.877 236.781 196.309 236.781C195.544 236.781 194.901 237.065 194.38 237.633C193.864 238.195 193.606 238.938 193.606 239.859C193.606 240.781 193.864 241.523 194.38 242.086C194.901 242.648 195.544 242.93 196.309 242.93C196.908 242.93 197.419 242.786 197.841 242.5C198.263 242.208 198.536 241.797 198.661 241.266H200.052C199.927 242.198 199.52 242.927 198.833 243.453C198.151 243.979 197.309 244.242 196.309 244.242ZM205.43 244.242C204.868 244.242 204.339 244.141 203.844 243.938C203.35 243.734 202.92 243.448 202.555 243.078C202.191 242.703 201.902 242.24 201.688 241.688C201.48 241.135 201.376 240.526 201.376 239.859C201.376 239.203 201.482 238.596 201.696 238.039C201.915 237.482 202.209 237.018 202.579 236.648C202.949 236.273 203.378 235.984 203.868 235.781C204.363 235.573 204.883 235.469 205.43 235.469C206.232 235.469 206.938 235.674 207.548 236.086C208.157 236.492 208.605 237.057 208.891 237.781C209.183 238.505 209.277 239.31 209.173 240.195H202.743C202.795 241.102 203.068 241.789 203.563 242.258C204.063 242.727 204.68 242.961 205.415 242.961C205.988 242.961 206.477 242.836 206.883 242.586C207.29 242.331 207.561 241.964 207.696 241.484H209.11C208.928 242.333 208.498 243.005 207.821 243.5C207.144 243.995 206.347 244.242 205.43 244.242ZM202.79 239.039H207.766C207.735 238.305 207.501 237.74 207.063 237.344C206.626 236.948 206.076 236.75 205.415 236.75C204.769 236.75 204.204 236.948 203.719 237.344C203.24 237.734 202.93 238.299 202.79 239.039ZM211.653 244.109C211.366 244.109 211.119 244.01 210.911 243.812C210.707 243.609 210.606 243.367 210.606 243.086C210.606 242.799 210.707 242.555 210.911 242.352C211.114 242.148 211.361 242.047 211.653 242.047C211.934 242.047 212.174 242.148 212.371 242.352C212.575 242.555 212.676 242.799 212.676 243.086C212.676 243.367 212.575 243.609 212.371 243.812C212.174 244.01 211.934 244.109 211.653 244.109Z" fill="#6D778A"/>
<g filter="url(#filter2_d_2267_4)">
<rect x="92" y="263" width="255" height="52" rx="26" fill="#E152B9"/>
</g>
<path d="M141.352 295L146.039 283.477H148.508L153.156 295H150.648L149.719 292.57H144.789L143.852 295H141.352ZM145.562 290.586H148.953L147.273 286.172L145.562 290.586ZM157.16 295.242C156.67 295.242 156.202 295.143 155.754 294.945C155.311 294.742 154.915 294.458 154.566 294.094C154.222 293.724 153.946 293.255 153.738 292.688C153.535 292.115 153.433 291.482 153.433 290.789C153.433 290.096 153.535 289.464 153.738 288.891C153.946 288.318 154.222 287.849 154.566 287.484C154.915 287.115 155.311 286.831 155.754 286.633C156.202 286.43 156.67 286.328 157.16 286.328C158.259 286.328 159.092 286.69 159.66 287.414V283.078H161.91V295H159.738V294.07C159.15 294.852 158.29 295.242 157.16 295.242ZM155.722 290.789C155.722 291.596 155.91 292.211 156.285 292.633C156.66 293.049 157.129 293.258 157.691 293.258C158.243 293.258 158.709 293.042 159.09 292.609C159.47 292.177 159.66 291.57 159.66 290.789C159.66 289.977 159.472 289.362 159.097 288.945C158.728 288.523 158.259 288.312 157.691 288.312C157.123 288.312 156.652 288.523 156.277 288.945C155.907 289.362 155.722 289.977 155.722 290.789ZM167.062 295.242C166.572 295.242 166.104 295.143 165.656 294.945C165.213 294.742 164.817 294.458 164.468 294.094C164.125 293.724 163.849 293.255 163.64 292.688C163.437 292.115 163.336 291.482 163.336 290.789C163.336 290.096 163.437 289.464 163.64 288.891C163.849 288.318 164.125 287.849 164.468 287.484C164.817 287.115 165.213 286.831 165.656 286.633C166.104 286.43 166.572 286.328 167.062 286.328C168.161 286.328 168.994 286.69 169.562 287.414V283.078H171.812V295H169.64V294.07C169.052 294.852 168.192 295.242 167.062 295.242ZM165.625 290.789C165.625 291.596 165.812 292.211 166.187 292.633C166.562 293.049 167.031 293.258 167.593 293.258C168.145 293.258 168.612 293.042 168.992 292.609C169.372 292.177 169.562 291.57 169.562 290.789C169.562 289.977 169.375 289.362 169 288.945C168.63 288.523 168.161 288.312 167.593 288.312C167.026 288.312 166.554 288.523 166.179 288.945C165.809 289.362 165.625 289.977 165.625 290.789ZM180.296 295.242C179.494 295.242 178.835 295.016 178.319 294.562C177.804 294.109 177.546 293.487 177.546 292.695C177.546 292.206 177.653 291.773 177.866 291.398C178.08 291.018 178.377 290.711 178.757 290.477C179.137 290.237 179.551 290.049 179.999 289.914C180.452 289.779 180.952 289.682 181.499 289.625L182.694 289.477V289.352C182.694 288.945 182.559 288.633 182.288 288.414C182.023 288.195 181.684 288.086 181.273 288.086C180.882 288.086 180.556 288.195 180.296 288.414C180.036 288.633 179.882 288.924 179.835 289.289H177.655C177.744 288.336 178.119 287.604 178.78 287.094C179.442 286.583 180.299 286.328 181.351 286.328C181.705 286.328 182.041 286.359 182.359 286.422C182.681 286.479 182.997 286.586 183.304 286.742C183.616 286.898 183.885 287.096 184.109 287.336C184.332 287.57 184.512 287.88 184.648 288.266C184.788 288.651 184.859 289.089 184.859 289.578V292.555C184.859 293.32 184.905 294.135 184.999 295H182.827V293.781C182.541 294.234 182.194 294.591 181.788 294.852C181.387 295.112 180.89 295.242 180.296 295.242ZM179.749 292.484C179.749 292.771 179.848 293.008 180.046 293.195C180.249 293.383 180.515 293.477 180.843 293.477C181.332 293.477 181.762 293.281 182.132 292.891C182.507 292.495 182.694 291.982 182.694 291.352V290.953L181.319 291.18C180.799 291.258 180.405 291.409 180.14 291.633C179.879 291.857 179.749 292.141 179.749 292.484ZM186.628 295V286.57H188.8V287.594C189.018 287.25 189.347 286.953 189.784 286.703C190.227 286.453 190.758 286.328 191.378 286.328C192.326 286.328 193.073 286.622 193.62 287.211C194.172 287.799 194.448 288.56 194.448 289.492V295H192.198V289.961C192.198 289.492 192.063 289.102 191.792 288.789C191.521 288.471 191.149 288.312 190.675 288.312C190.175 288.312 189.75 288.492 189.401 288.852C189.057 289.206 188.886 289.656 188.886 290.203V295H186.628ZM199.916 295L204.604 283.477H207.073L211.721 295H209.213L208.284 292.57H203.354L202.416 295H199.916ZM204.127 290.586H207.518L205.838 286.172L204.127 290.586ZM212.803 295V286.57H214.975V287.594C215.194 287.25 215.522 286.953 215.959 286.703C216.402 286.453 216.933 286.328 217.553 286.328C218.501 286.328 219.248 286.622 219.795 287.211C220.347 287.799 220.623 288.56 220.623 289.492V295H218.373V289.961C218.373 289.492 218.238 289.102 217.967 288.789C217.696 288.471 217.324 288.312 216.85 288.312C216.35 288.312 215.925 288.492 215.576 288.852C215.233 289.206 215.061 289.656 215.061 290.203V295H212.803ZM222.408 295V286.57H224.58V287.594C224.799 287.25 225.127 286.953 225.564 286.703C226.007 286.453 226.538 286.328 227.158 286.328C228.106 286.328 228.854 286.622 229.4 287.211C229.952 287.799 230.229 288.56 230.229 289.492V295H227.979V289.961C227.979 289.492 227.843 289.102 227.572 288.789C227.301 288.471 226.929 288.312 226.455 288.312C225.955 288.312 225.531 288.492 225.182 288.852C224.838 289.206 224.666 289.656 224.666 290.203V295H222.408ZM238.263 294.727C237.607 295.07 236.862 295.242 236.029 295.242C235.196 295.242 234.448 295.07 233.787 294.727C233.131 294.378 232.607 293.862 232.217 293.18C231.826 292.497 231.631 291.701 231.631 290.789C231.631 290.096 231.743 289.469 231.967 288.906C232.196 288.339 232.508 287.87 232.904 287.5C233.305 287.125 233.771 286.836 234.302 286.633C234.839 286.43 235.414 286.328 236.029 286.328C236.649 286.328 237.224 286.43 237.756 286.633C238.292 286.836 238.756 287.125 239.146 287.5C239.542 287.87 239.852 288.339 240.076 288.906C240.3 289.469 240.412 290.096 240.412 290.789C240.412 291.706 240.217 292.505 239.826 293.188C239.441 293.865 238.92 294.378 238.263 294.727ZM233.888 290.789C233.888 291.586 234.094 292.201 234.506 292.633C234.917 293.06 235.425 293.273 236.029 293.273C236.633 293.273 237.138 293.06 237.545 292.633C237.951 292.201 238.154 291.586 238.154 290.789C238.154 289.982 237.951 289.365 237.545 288.938C237.138 288.51 236.633 288.297 236.029 288.297C235.42 288.297 234.909 288.51 234.498 288.938C234.092 289.365 233.888 289.982 233.888 290.789ZM244.783 295.242C243.856 295.242 243.124 294.948 242.587 294.359C242.056 293.766 241.791 293.003 241.791 292.07V286.57H244.048V291.609C244.048 292.078 244.179 292.471 244.439 292.789C244.699 293.102 245.054 293.258 245.502 293.258C245.981 293.258 246.382 293.081 246.705 292.727C247.033 292.367 247.197 291.914 247.197 291.367V286.57H249.455V295H247.291V293.977C247.072 294.32 246.749 294.617 246.322 294.867C245.895 295.117 245.382 295.242 244.783 295.242ZM251.224 295V286.57H253.396V287.594C253.615 287.25 253.943 286.953 254.38 286.703C254.823 286.453 255.354 286.328 255.974 286.328C256.922 286.328 257.669 286.622 258.216 287.211C258.768 287.799 259.044 288.56 259.044 289.492V295H256.794V289.961C256.794 289.492 256.659 289.102 256.388 288.789C256.117 288.471 255.745 288.312 255.271 288.312C254.771 288.312 254.346 288.492 253.997 288.852C253.654 289.206 253.482 289.656 253.482 290.203V295H251.224ZM264.735 295.242C264.142 295.242 263.584 295.143 263.064 294.945C262.548 294.742 262.095 294.456 261.704 294.086C261.314 293.716 261.006 293.247 260.782 292.68C260.558 292.112 260.446 291.482 260.446 290.789C260.446 290.128 260.558 289.516 260.782 288.953C261.011 288.391 261.319 287.919 261.704 287.539C262.09 287.159 262.543 286.862 263.064 286.648C263.59 286.435 264.147 286.328 264.735 286.328C265.824 286.328 266.735 286.617 267.47 287.195C268.209 287.773 268.631 288.573 268.735 289.594H266.478C266.384 289.193 266.176 288.88 265.853 288.656C265.535 288.427 265.163 288.312 264.735 288.312C264.173 288.312 263.694 288.539 263.298 288.992C262.902 289.44 262.704 290.039 262.704 290.789C262.704 291.534 262.902 292.135 263.298 292.594C263.699 293.047 264.178 293.273 264.735 293.273C265.183 293.273 265.558 293.164 265.86 292.945C266.168 292.721 266.373 292.398 266.478 291.977H268.735C268.621 293.003 268.204 293.805 267.485 294.383C266.772 294.956 265.855 295.242 264.735 295.242ZM273.934 295.242C273.341 295.242 272.786 295.141 272.27 294.938C271.755 294.729 271.304 294.44 270.919 294.07C270.533 293.695 270.229 293.224 270.005 292.656C269.786 292.089 269.677 291.461 269.677 290.773C269.677 290.096 269.791 289.477 270.02 288.914C270.25 288.346 270.557 287.878 270.942 287.508C271.333 287.133 271.783 286.844 272.294 286.641C272.809 286.432 273.351 286.328 273.919 286.328C274.565 286.328 275.158 286.451 275.7 286.695C276.242 286.935 276.695 287.271 277.059 287.703C277.424 288.135 277.687 288.669 277.848 289.305C278.015 289.935 278.054 290.622 277.966 291.367H271.88C271.973 292.029 272.203 292.534 272.567 292.883C272.937 293.227 273.393 293.398 273.934 293.398C274.351 293.398 274.713 293.305 275.02 293.117C275.333 292.924 275.541 292.656 275.645 292.312H277.934C277.742 293.229 277.289 293.948 276.575 294.469C275.867 294.984 274.987 295.242 273.934 295.242ZM271.95 289.852H275.645C275.625 289.315 275.455 288.901 275.138 288.609C274.825 288.318 274.414 288.172 273.903 288.172C273.44 288.172 273.031 288.315 272.677 288.602C272.322 288.883 272.08 289.299 271.95 289.852ZM279.383 295V286.57H281.555V287.578C281.753 287.245 282.055 286.953 282.462 286.703C282.873 286.453 283.363 286.328 283.93 286.328C284.456 286.328 284.92 286.445 285.321 286.68C285.727 286.914 286.048 287.24 286.282 287.656C286.532 287.297 286.891 286.987 287.36 286.727C287.834 286.461 288.355 286.328 288.923 286.328C289.834 286.328 290.545 286.62 291.055 287.203C291.571 287.786 291.829 288.549 291.829 289.492V295H289.579V289.812C289.579 289.365 289.462 289.003 289.227 288.727C288.998 288.451 288.683 288.312 288.282 288.312C287.839 288.312 287.469 288.469 287.173 288.781C286.876 289.094 286.727 289.513 286.727 290.039V295H284.469V289.812C284.469 289.37 284.355 289.01 284.126 288.734C283.896 288.453 283.579 288.312 283.173 288.312C282.735 288.312 282.37 288.471 282.079 288.789C281.787 289.102 281.641 289.518 281.641 290.039V295H279.383ZM297.489 295.242C296.895 295.242 296.34 295.141 295.825 294.938C295.309 294.729 294.858 294.44 294.473 294.07C294.088 293.695 293.783 293.224 293.559 292.656C293.34 292.089 293.231 291.461 293.231 290.773C293.231 290.096 293.345 289.477 293.575 288.914C293.804 288.346 294.111 287.878 294.497 287.508C294.887 287.133 295.338 286.844 295.848 286.641C296.364 286.432 296.905 286.328 297.473 286.328C298.119 286.328 298.713 286.451 299.254 286.695C299.796 286.935 300.249 287.271 300.614 287.703C300.978 288.135 301.241 288.669 301.403 289.305C301.569 289.935 301.608 290.622 301.52 291.367H295.434C295.528 292.029 295.757 292.534 296.122 292.883C296.491 293.227 296.947 293.398 297.489 293.398C297.905 293.398 298.267 293.305 298.575 293.117C298.887 292.924 299.095 292.656 299.2 292.312H301.489C301.296 293.229 300.843 293.948 300.129 294.469C299.421 294.984 298.541 295.242 297.489 295.242ZM295.504 289.852H299.2C299.179 289.315 299.01 288.901 298.692 288.609C298.379 288.318 297.968 288.172 297.457 288.172C296.994 288.172 296.585 288.315 296.231 288.602C295.877 288.883 295.635 289.299 295.504 289.852ZM302.938 295V286.57H305.11V287.594C305.328 287.25 305.656 286.953 306.094 286.703C306.537 286.453 307.068 286.328 307.688 286.328C308.636 286.328 309.383 286.622 309.93 287.211C310.482 287.799 310.758 288.56 310.758 289.492V295H308.508V289.961C308.508 289.492 308.373 289.102 308.102 288.789C307.831 288.471 307.459 288.312 306.985 288.312C306.485 288.312 306.06 288.492 305.711 288.852C305.367 289.206 305.195 289.656 305.195 290.203V295H302.938ZM316.23 295.156C315.762 295.156 315.345 295.104 314.98 295C314.616 294.896 314.285 294.727 313.988 294.492C313.697 294.258 313.473 293.93 313.316 293.508C313.16 293.086 313.082 292.581 313.082 291.992V288.375H311.48V286.57H313.082V284.922L315.34 283.766V286.57H317.34V288.375H315.34V291.93C315.34 292.794 315.793 293.227 316.699 293.227C316.97 293.227 317.251 293.198 317.543 293.141V295C317.147 295.104 316.71 295.156 316.23 295.156Z" fill="white"/>
<path d="M128.875 282C129.074 282 129.265 282.079 129.405 282.22C129.546 282.36 129.625 282.551 129.625 282.75V288.375H135.25C135.449 288.375 135.64 288.454 135.78 288.595C135.921 288.735 136 288.926 136 289.125V289.875C136 290.074 135.921 290.265 135.78 290.405C135.64 290.546 135.449 290.625 135.25 290.625H129.625V296.25C129.625 296.449 129.546 296.64 129.405 296.78C129.265 296.921 129.074 297 128.875 297H128.125C127.926 297 127.735 296.921 127.595 296.78C127.454 296.64 127.375 296.449 127.375 296.25V290.625H121.75C121.551 290.625 121.36 290.546 121.22 290.405C121.079 290.265 121 290.074 121 289.875V289.125C121 288.926 121.079 288.735 121.22 288.595C121.36 288.454 121.551 288.375 121.75 288.375H127.375V282.75C127.375 282.551 127.454 282.36 127.595 282.22C127.735 282.079 127.926 282 128.125 282H128.875Z" fill="white"/>
<g opacity="0.4" filter="url(#filter3_f_2267_4)">
<rect x="129" y="142" width="151" height="19" fill="#E152B9"/>
</g>
<defs>
<filter id="filter0_d_2267_4" x="0.827942" y="0.827942" width="740.344" height="480.344" filterUnits="userSpaceOnUse" color-interpolation-filters="sRGB">
<feFlood flood-opacity="0" result="BackgroundImageFix"/>
<feColorMatrix in="SourceAlpha" type="matrix" values="0 0 0 0 0 0 0 0 0 0 0 0 0 0 0 0 0 0 127 0" result="hardAlpha"/>
<feOffset dx="31" dy="39"/>
<feGaussianBlur stdDeviation="44.086"/>
<feComposite in2="hardAlpha" operator="out"/>
<feColorMatrix type="matrix" values="0 0 0 0 0.318646 0 0 0 0 0.396127 0 0 0 0 0.670833 0 0 0 0.26 0"/>
<feBlend mode="normal" in2="BackgroundImageFix" result="effect1_dropShadow_2267_4"/>
<feBlend mode="normal" in="SourceGraphic" in2="effect1_dropShadow_2267_4" result="shape"/>
</filter>
<filter id="filter1_f_2267_4" x="255.8" y="70.8" width="136.4" height="78.4" filterUnits="userSpaceOnUse" color-interpolation-filters="sRGB">
<feFlood flood-opacity="0" result="BackgroundImageFix"/>
<feBlend mode="normal" in="SourceGraphic" in2="BackgroundImageFix" result="shape"/>
<feGaussianBlur stdDeviation="14.1" result="effect1_foregroundBlur_2267_4"/>
</filter>
<filter id="filter2_d_2267_4" x="88" y="263" width="263" height="60" filterUnits="userSpaceOnUse" color-interpolation-filters="sRGB">
<feFlood flood-opacity="0" result="BackgroundImageFix"/>
<feColorMatrix in="SourceAlpha" type="matrix" values="0 0 0 0 0 0 0 0 0 0 0 0 0 0 0 0 0 0 127 0" result="hardAlpha"/>
<feOffset dy="4"/>
<feGaussianBlur stdDeviation="2"/>
<feComposite in2="hardAlpha" operator="out"/>
<feColorMatrix type="matrix" values="0 0 0 0 0 0 0 0 0 0 0 0 0 0 0 0 0 0 0.25 0"/>
<feBlend mode="normal" in2="BackgroundImageFix" result="effect1_dropShadow_2267_4"/>
<feBlend mode="normal" in="SourceGraphic" in2="effect1_dropShadow_2267_4" result="shape"/>
</filter>
<filter id="filter3_f_2267_4" x="100.8" y="113.8" width="207.4" height="75.4" filterUnits="userSpaceOnUse" color-interpolation-filters="sRGB">
<feFlood flood-opacity="0" result="BackgroundImageFix"/>
<feBlend mode="normal" in="SourceGraphic" in2="BackgroundImageFix" result="shape"/>
<feGaussianBlur stdDeviation="14.1" result="effect1_foregroundBlur_2267_4"/>
</filter>
</defs>
</svg>
