<svg width="18" height="18" viewBox="0 0 18 18" fill="none" xmlns="http://www.w3.org/2000/svg">
<path d="M17.6074 7.72352L9.94787 0.376622C9.8234 0.257219 9.67563 0.162502 9.51299 0.0978813C9.35035 0.0332603 9.17604 0 9 0C8.82396 0 8.64965 0.0332603 8.48701 0.0978813C8.32437 0.162502 8.1766 0.257219 8.05213 0.376622L0.392557 7.72352C0.267749 7.84268 0.168798 7.98438 0.101419 8.14043C0.0340409 8.29648 -0.000428111 8.4638 4.01319e-06 8.6327V17.449C4.01319e-06 17.5951 0.0605281 17.7353 0.168262 17.8386C0.275995 17.9419 0.422114 18 0.574472 18H6.70213C6.85449 18 7.0006 17.9419 7.10834 17.8386C7.21607 17.7353 7.2766 17.5951 7.2766 17.449V12.1225H10.7234V17.449C10.7234 17.5951 10.7839 17.7353 10.8917 17.8386C10.9994 17.9419 11.1455 18 11.2979 18H17.4255C17.5779 18 17.724 17.9419 17.8317 17.8386C17.9395 17.7353 18 17.5951 18 17.449V8.6327C18.0004 8.4638 17.966 8.29648 17.8986 8.14043C17.8312 7.98438 17.7323 7.84268 17.6074 7.72352ZM16.8511 16.898H11.8723V11.5715C11.8723 11.4253 11.8118 11.2852 11.7041 11.1818C11.5963 11.0785 11.4502 11.0204 11.2979 11.0204H6.70213C6.54977 11.0204 6.40365 11.0785 6.29592 11.1818C6.18819 11.2852 6.12766 11.4253 6.12766 11.5715V16.898H1.14894V8.6327C1.14879 8.60853 1.15362 8.58457 1.16315 8.56219C1.17268 8.53981 1.18672 8.51946 1.20447 8.50229L8.86404 1.15539C8.88184 1.13818 8.90302 1.12451 8.92636 1.11519C8.94969 1.10586 8.97472 1.10106 9 1.10106C9.02528 1.10106 9.05031 1.10586 9.07364 1.11519C9.09698 1.12451 9.11816 1.13818 9.13596 1.15539L16.7955 8.50229C16.8133 8.51946 16.8273 8.53981 16.8368 8.56219C16.8464 8.58457 16.8512 8.60853 16.8511 8.6327V16.898Z" fill="#6D778A"/>
</svg>
