<svg width="18" height="19" viewBox="0 0 18 19" fill="none" xmlns="http://www.w3.org/2000/svg">
<path d="M0 0.5H1.63636V6.5H7.36364V1.35714H14.7273C16.5273 1.35714 18 2.9 18 4.78571V18.5H16.3636V16.7857H1.63636V18.5H0V0.5ZM9 3.07143V6.5H16.3636V4.78571C16.3636 3.84286 15.6273 3.07143 14.7273 3.07143H9ZM1.63636 8.21429V15.0714H7.36364V9.92857H14.7273C15.3 9.92857 15.8727 10.1 16.3636 10.4429V8.21429H1.63636ZM4.5 9.92857C5.64545 9.92857 6.54545 10.8714 6.54545 12.0714C6.54545 13.2714 5.64545 14.2143 4.5 14.2143C3.35455 14.2143 2.45455 13.2714 2.45455 12.0714C2.45455 10.8714 3.35455 9.92857 4.5 9.92857ZM4.5 11.3C4.09091 11.3 3.76364 11.6429 3.76364 12.0714C3.76364 12.5 4.09091 12.8429 4.5 12.8429C4.90909 12.8429 5.23636 12.5 5.23636 12.0714C5.23636 11.6429 4.90909 11.3 4.5 11.3ZM9 11.6429V15.0714H16.3636V13.3571C16.3636 12.4143 15.6273 11.6429 14.7273 11.6429H9ZM4.5 1.35714C5.64545 1.35714 6.54545 2.3 6.54545 3.5C6.54545 4.7 5.64545 5.64286 4.5 5.64286C3.35455 5.64286 2.45455 4.7 2.45455 3.5C2.45455 2.3 3.35455 1.35714 4.5 1.35714ZM4.5 2.72857C4.09091 2.72857 3.76364 3.07143 3.76364 3.5C3.76364 3.92857 4.09091 4.27143 4.5 4.27143C4.90909 4.27143 5.23636 3.92857 5.23636 3.5C5.23636 3.07143 4.90909 2.72857 4.5 2.72857Z" fill="#6D778A"/>
</svg>
