<svg width="100" height="100" viewBox="0 0 100 100" fill="none" xmlns="http://www.w3.org/2000/svg">
<path d="M97.8191 42.9085L55.2659 2.09234C54.5744 1.42899 53.7535 0.902791 52.8499 0.543785C51.9464 0.184779 50.978 0 50 0C49.022 0 48.0536 0.184779 47.1501 0.543785C46.2465 0.902791 45.4256 1.42899 44.734 2.09234L2.18087 42.9085C1.4875 43.5704 0.937765 44.3576 0.563441 45.2246C0.189116 46.0916 -0.00237839 47.0211 2.22955e-05 47.9595V96.9388C2.22955e-05 97.7507 0.336267 98.5293 0.934787 99.1034C1.53331 99.6775 2.34508 100 3.19151 100H37.234C38.0805 100 38.8922 99.6775 39.4908 99.1034C40.0893 98.5293 40.4255 97.7507 40.4255 96.9388V67.3471H59.5745V96.9388C59.5745 97.7507 59.9107 98.5293 60.5092 99.1034C61.1077 99.6775 61.9195 100 62.7659 100H96.8085C97.6549 100 98.4667 99.6775 99.0652 99.1034C99.6637 98.5293 100 97.7507 100 96.9388V47.9595C100.002 47.0211 99.8109 46.0916 99.4366 45.2246C99.0622 44.3576 98.5125 43.5704 97.8191 42.9085ZM93.617 93.8776H65.9574V64.2859C65.9574 63.474 65.6212 62.6954 65.0227 62.1213C64.4242 61.5472 63.6124 61.2247 62.7659 61.2247H37.234C36.3876 61.2247 35.5758 61.5472 34.9773 62.1213C34.3788 62.6954 34.0426 63.474 34.0426 64.2859V93.8776H6.383V47.9595C6.38219 47.8252 6.40902 47.692 6.46196 47.5677C6.51491 47.4434 6.59291 47.3303 6.69151 47.235L49.2447 6.41885C49.3436 6.32321 49.4612 6.2473 49.5909 6.19549C49.7205 6.14369 49.8596 6.11702 50 6.11702C50.1404 6.11702 50.2795 6.14369 50.4091 6.19549C50.5388 6.2473 50.6564 6.32321 50.7553 6.41885L93.3085 47.235C93.4071 47.3303 93.4851 47.4434 93.538 47.5677C93.591 47.692 93.6178 47.8252 93.617 47.9595V93.8776Z" fill="url(#paint0_linear_1225_7)"/>
<defs>
<linearGradient id="paint0_linear_1225_7" x1="2.66632e-08" y1="78.9474" x2="112.494" y2="79.774" gradientUnits="userSpaceOnUse">
<stop stop-color="#4AB1F1"/>
<stop offset="0.328125" stop-color="#566CEC"/>
<stop offset="0.65625" stop-color="#D749AF"/>
<stop offset="1" stop-color="#FF7C51"/>
</linearGradient>
</defs>
</svg>
